<svg width="291" height="165" viewBox="0 0 291 165" fill="none" xmlns="http://www.w3.org/2000/svg">
<path d="M19.399 46.5216L19.5022 47.3209L18.2 47.489L18.0968 46.6896L19.399 46.5216ZM22.1582 46.9782L20.856 47.1462L20.7528 46.3468L22.055 46.1788L22.1582 46.9782ZM21.1122 49.1318L20.9991 48.255L22.3013 48.087L22.4144 48.9637L21.1122 49.1318ZM18.4562 49.4745L18.3431 48.5978L19.6453 48.4297L19.7584 49.3065L18.4562 49.4745ZM17.2913 51.3158L18.6709 51.1377L18.6076 50.6478L22.5658 50.137L22.6191 50.5496L24.0631 50.3632L23.3476 44.8192L16.5659 45.6944L17.2913 51.3158ZM21.1919 43.2492L18.1363 43.6435L18.0148 42.7023L21.0705 42.308L21.1919 43.2492ZM16.4838 41.7071L16.9065 44.9819L22.7986 44.2215L22.376 40.9467L16.4838 41.7071ZM15.719 41.1635L22.8746 40.24L22.7083 38.9507L15.5526 39.8742L15.719 41.1635ZM24.7092 39.728L23.3812 39.8994L24.318 47.1582L25.646 46.9868L24.7092 39.728ZM25.405 38.3143L26.6878 48.2549C26.7161 48.4741 26.6358 48.5631 26.4167 48.5914C26.1846 48.6213 25.4368 48.7178 24.6986 48.7869C24.9598 49.1857 25.2817 49.852 25.3898 50.2837C26.4857 50.1423 27.2527 49.9909 27.7093 49.6698C28.1805 49.3599 28.2949 48.9257 28.1834 48.0619L26.9006 38.1213L25.405 38.3143ZM38.7876 39.7332C38.6907 40.0996 38.5843 40.4934 38.4695 40.8228L36.0585 41.134L36.2727 41.067C36.1458 40.795 35.93 40.4428 35.7062 40.1308L38.7876 39.7332ZM43.6942 44.946L43.5311 43.6825L38.5157 44.3298L38.4425 43.7625L42.3104 43.2633L42.1673 42.1545L38.2994 42.6537L38.2245 42.0735L42.6984 41.4961L42.5437 40.2971L40.0167 40.6232C40.1701 40.2888 40.3315 39.914 40.4895 39.5135L42.9134 39.2007L42.752 37.9501L41.0759 38.1664C41.3142 37.6769 41.5875 37.0518 41.8719 36.4121L40.2104 36.2333C40.1031 36.8239 39.8806 37.639 39.6394 38.2076L40.1218 38.2895L38.9744 38.4376L38.7031 36.336L37.2591 36.5224L37.5303 38.624L36.5762 38.7471L36.305 36.6455L34.8739 36.8302L35.1451 38.9318L33.9718 39.0832L34.5737 38.7696C34.3283 38.29 33.8046 37.5843 33.3592 37.0781L32.1023 37.6991C32.4492 38.1524 32.8643 38.728 33.108 39.1947L31.3803 39.4176L31.5417 40.6683L34.2364 40.3205L34.085 40.3663C34.2909 40.6412 34.5084 41.0063 34.6531 41.3153L32.2035 41.6315L32.3582 42.8305L36.7161 42.2682L36.7909 42.8483L33.0777 43.3275L33.2208 44.4363L36.934 43.9571L37.0072 44.5244L32.0821 45.16L32.2451 46.4236L35.9455 45.946C34.9232 46.7596 33.4717 47.4974 32.0659 47.9803C32.4282 48.2481 32.9431 48.7847 33.2105 49.1303C34.6932 48.5326 36.1826 47.5801 37.2601 46.4842L37.5497 48.7276L39.0582 48.5329L38.7587 46.2122C40.0746 47.0647 41.7345 47.637 43.3719 47.832C43.5508 47.3895 43.9188 46.6866 44.2237 46.3065C42.6981 46.2674 41.1376 45.9576 39.9552 45.4286L43.6942 44.946ZM51.3676 40.823C51.4841 41.7255 52.3284 42.3768 53.2309 42.2603C54.1334 42.1439 54.7847 41.2996 54.6682 40.397C54.5518 39.4945 53.7074 38.8432 52.8049 38.9597C51.9024 39.0762 51.2511 39.9205 51.3676 40.823ZM68.0143 40.3132L67.9144 39.5396L69.0877 39.3882L69.1875 40.1618L68.0143 40.3132ZM67.6582 37.5541L68.8315 37.4027L68.923 38.1118L67.7497 38.2632L67.6582 37.5541ZM67.4119 35.6459L68.5852 35.4945L68.6834 36.2552L67.5101 36.4066L67.4119 35.6459ZM71.4488 37.0649L71.5403 37.774L70.3928 37.9221L70.3013 37.213L71.4488 37.0649ZM71.8048 39.824L70.6573 39.9721L70.5575 39.1985L71.705 39.0504L71.8048 39.824ZM73.4502 40.7914L73.2006 38.8574L74.4641 38.6944L74.2994 37.4179L73.0359 37.581L72.7963 35.7244L70.1532 36.0655L70.055 35.3048L73.7166 34.8323L73.5536 33.5687L71.1039 33.8849C71.4038 33.466 71.7003 33.0214 71.9918 32.5381L70.275 32.2354C70.0466 32.8023 69.632 33.5505 69.2473 34.1245L66.2561 34.5105L66.6678 34.2476C66.3372 33.8184 65.648 33.252 65.0628 32.8818L63.7407 33.7078C64.1433 33.9836 64.5704 34.3479 64.9023 34.6852L62.3366 35.0163L62.4997 36.2798L65.9421 35.8356L66.0403 36.5963L63.6164 36.9091L63.7645 38.0566L66.1884 37.7438L66.2799 38.4529L62.6311 38.9237L62.7959 40.2002L66.4446 39.7293L66.5444 40.5029L63.9916 40.8323L64.1414 41.9927L65.869 41.7697C65.1712 42.6594 64.141 43.5133 63.1095 44.0527C63.4668 44.2819 63.9751 44.7668 64.2392 45.0866C65.1866 44.5056 66.1249 43.6505 66.8273 42.6947L67.1118 44.8994L68.5816 44.7097L68.164 41.4736L69.3373 41.3222L69.7549 44.5583L71.2247 44.3686L70.9236 42.035C71.9039 42.826 73.0722 43.4486 74.2151 43.773C74.3972 43.3563 74.7624 42.7324 75.0739 42.4038C73.8782 42.178 72.6184 41.659 71.6709 41.021L73.4502 40.7914ZM85.2027 33.7432C85.1058 34.1096 84.9994 34.5035 84.8846 34.8329L82.4736 35.144L82.6878 35.077C82.5609 34.805 82.345 34.4528 82.1213 34.1409L85.2027 33.7432ZM90.1093 38.9561L89.9462 37.6925L84.9308 38.3398L84.8576 37.7725L88.7255 37.2733L88.5824 36.1645L84.7145 36.6637L84.6396 36.0835L89.1135 35.5061L88.9588 34.3071L86.4317 34.6332C86.5852 34.2988 86.7466 33.9241 86.9046 33.5236L89.3285 33.2107L89.1671 31.9601L87.491 32.1764C87.7293 31.6869 88.0026 31.0618 88.287 30.4221L86.6255 30.2433C86.5182 30.8339 86.2957 31.6491 86.0545 32.2176L86.5369 32.2995L85.3894 32.4476L85.1182 30.3461L83.6742 30.5324L83.9454 32.634L82.9913 32.7571L82.7201 30.6555L81.289 30.8402L81.5602 32.9418L80.3869 33.0932L80.9887 32.7796C80.7433 32.3001 80.2197 31.5943 79.7743 31.0881L78.5174 31.7091C78.8643 32.1624 79.2794 32.7381 79.5231 33.2047L77.7954 33.4277L77.9568 34.6783L80.6515 34.3305L80.5001 34.3763C80.706 34.6512 80.9235 35.0164 81.0682 35.3254L78.6185 35.6415L78.7733 36.8406L83.1311 36.2782L83.206 36.8584L79.4928 37.3376L79.6359 38.4464L83.3491 37.9672L83.4223 38.5345L78.4972 39.1701L78.6602 40.4336L82.3605 39.9561C81.3383 40.7696 79.8868 41.5074 78.481 41.9903C78.8433 42.2582 79.3582 42.7947 79.6256 43.1403C81.1083 42.5426 82.5976 41.5902 83.6752 40.4942L83.9647 42.7376L85.4732 42.5429L85.1737 40.2222C86.4897 41.0748 88.1496 41.647 89.787 41.842C89.9658 41.3995 90.3339 40.6966 90.6388 40.3165C89.1132 40.2774 87.5527 39.9676 86.3703 39.4386L90.1093 38.9561ZM98.2334 30.6066L98.4593 32.2552C100.076 32.1907 102.384 31.8929 103.939 31.5481L103.726 29.8978C102.368 30.2434 99.8347 30.6228 98.2334 30.6066ZM98.4823 35.988C98.4299 36.5977 98.4095 37.1509 98.4777 37.6795C98.6458 38.9817 99.7933 39.6463 101.998 39.3618C103.442 39.1754 104.46 38.9391 105.265 38.6779L105.004 36.9553C103.925 37.3304 102.997 37.555 101.849 37.7031C100.56 37.8695 100.027 37.5975 99.9538 37.0302C99.9088 36.6821 99.9205 36.366 99.9704 35.9401L98.4823 35.988ZM94.3534 30.098C94.405 30.4977 94.3909 30.9976 94.3859 31.3653C94.3705 32.3634 94.2616 34.5665 94.5095 36.4876C94.7325 38.2152 95.1788 39.7437 95.5515 40.6L97.008 40.3072C96.9718 40.1284 96.9451 39.9221 96.9139 39.7819C96.8973 39.653 96.8994 39.3644 96.9148 39.1789C96.9555 38.4789 97.2029 37.0444 97.4259 35.9277L96.5466 35.412C96.4194 35.8479 96.268 36.3 96.1457 36.7745C96.0721 36.5088 96.0193 36.201 95.9876 35.956C95.8229 34.6796 95.9318 32.0702 96.0025 31.196C96.0241 30.9572 96.0957 30.2926 96.1655 30.0214L94.3534 30.098ZM115.145 28.293L116.809 28.0783L117.003 29.5868C117.113 30.4378 117.266 30.7064 117.542 30.9198C117.804 31.1219 118.204 31.1751 118.553 31.1302L119.326 31.0304C119.571 30.9988 119.9 30.9039 120.08 30.7758C120.308 30.6153 120.441 30.4277 120.498 30.1582C120.568 29.887 120.556 29.2856 120.512 28.7408C120.134 28.6585 119.587 28.48 119.286 28.2829C119.335 28.7616 119.375 29.1759 119.373 29.3597C119.37 29.5435 119.329 29.6275 119.28 29.66C119.245 29.6907 119.156 29.7153 119.092 29.7236L118.821 29.7586C118.744 29.7685 118.678 29.764 118.634 29.7303C118.589 29.6837 118.574 29.5677 118.544 29.3356L118.183 26.5378L113.515 27.1401L113.687 28.4681C113.8 29.3448 113.803 30.4848 112.747 31.4468C113.104 31.5712 113.831 31.923 114.122 32.1476C115.263 31.0305 115.302 29.5049 115.149 28.3188L115.145 28.293ZM110.79 27.0462C110.347 27.9815 109.336 29.1869 108.399 29.9501C108.686 30.2408 109.115 30.8276 109.326 31.1412C110.449 30.1967 111.613 28.7489 112.309 27.44L110.79 27.0462ZM111.537 29.6892C110.929 31.0655 109.806 32.5212 108.724 33.4865C109.025 33.7885 109.541 34.5346 109.726 34.8515C110.064 34.5196 110.394 34.1361 110.733 33.7123L111.438 39.179L112.921 38.9876L112.006 31.8964C112.374 31.2984 112.714 30.6778 112.977 30.0802L111.537 29.6892ZM118.18 33.1183C117.917 33.8207 117.527 34.4608 117.052 35.0464C116.444 34.6006 115.931 34.077 115.524 33.461L118.18 33.1183ZM119.051 31.5378L118.776 31.6389L113.283 32.3477L113.461 33.7272L115.279 33.4926L114.176 33.9888C114.702 34.8123 115.303 35.5081 116.007 36.0858C115.202 36.7533 114.275 37.2924 113.251 37.6867C113.575 37.9595 114.023 38.4914 114.256 38.8678C115.384 38.3683 116.417 37.7369 117.3 36.9675C118.315 37.5181 119.502 37.8762 120.87 38.0143C121.036 37.5734 121.368 36.9013 121.673 36.5211C120.446 36.4567 119.339 36.2063 118.395 35.8038C119.254 34.7361 119.86 33.4389 120.142 31.8688L119.051 31.5378ZM135.37 26.1548L130.664 26.7621L130.375 24.5187L128.776 24.7251L129.065 26.9684L124.488 27.5591L124.683 29.0676L135.565 27.6633L135.37 26.1548ZM129.714 33.9236C129.41 32.5865 128.675 30.6496 127.865 29.142L126.445 29.7185C127.215 31.2182 127.933 33.2229 128.196 34.5521L129.714 33.9236ZM133.121 34.3228C133.481 32.7428 133.817 30.5759 134.024 28.6224L132.216 28.528C132.185 30.4196 131.875 32.8976 131.496 34.5325L125.076 35.3611L125.274 36.8954L136.942 35.3896L136.744 33.8553L133.121 34.3228ZM139.883 27.1978L140.838 28.9097C142.089 28.1452 144.943 26.4923 146.825 26.2494C148.36 26.0514 149.303 26.8603 149.458 28.0594C149.744 30.277 147.166 31.6321 143.721 32.1553L144.675 33.7624C149.145 32.9496 151.665 30.7369 151.292 27.8489C150.987 25.4895 148.998 24.3961 146.69 24.6939C144.821 24.9352 142.347 26.185 141.393 26.6097C140.947 26.8114 140.337 27.0606 139.883 27.1978Z" fill="#002839"/>
<g clip-path="url(#clip0)">
<path fill-rule="evenodd" clip-rule="evenodd" d="M9.33374 100.226C6.8822 81.2295 19.5787 64.3176 38.2424 61.909C53.9179 59.886 67.3373 67.9391 69.3753 83.7307C71.8438 102.859 59.2697 119.755 40.4836 122.179C24.808 124.202 11.3886 116.149 9.33374 100.226ZM20.001 98.2018C21.4088 109.11 29.9931 114.406 39.9675 113.119C52.0123 111.564 60.6387 99.7513 58.8486 85.8806C57.4565 75.0934 48.724 69.6937 38.8821 70.9638C26.8374 72.5182 18.211 84.3311 20.001 98.2018ZM165.48 80.3421C165.779 82.6573 165.755 85.5279 165.534 86.8619L132.887 91.075L132.937 92.5075C133.551 97.2591 138.504 101.975 147.06 100.871C150.946 100.369 155.186 98.5166 157.883 95.9485L161.55 101.868C158.045 105.322 152.692 107.709 147.378 108.394C134.293 110.083 125.206 103.948 123.732 92.5237C121.959 78.7844 130.847 66.0231 144.584 64.2502C155.455 62.837 164.039 69.1707 165.48 80.3421ZM157.171 80.2324C156.476 74.8439 152.264 70.8135 144.881 71.7665C138.139 72.6364 133.516 78.5881 133.088 84.5122L157.187 81.4021C157.287 81.1322 157.221 80.6166 157.171 80.2324ZM194.982 57.8696C188.118 58.7554 184.044 61.8919 180.572 66.6465L181.238 60.558L172.039 61.7452L168.224 104.656L177.423 103.469L179.867 75.4842C182.093 71.2809 185.985 67.7774 190.391 67.2088C192.074 66.9916 193.534 67.0601 194.194 67.1086L194.982 57.8696ZM207.298 68.5421C207.613 70.9785 211.549 71.9096 216.153 72.8777C222.506 74.1442 230.371 75.8735 231.183 83.2102C232.16 90.7825 226.768 98.0051 216.052 99.6552L215.532 99.7223C207.76 100.725 200.565 99.0431 195.529 94.7286L200.164 87.7375C202.897 90.5196 209.019 93.1214 215.135 92.4658L215.389 92.4329C220.183 91.8143 222.68 88.7477 222.299 85.7956C221.935 82.975 217.734 82.0782 213.13 81.1101L213.044 81.0903C206.696 79.6998 199.173 78.0497 198.282 71.1446C197.453 64.7249 201.617 58.185 210.551 55.9837C210.836 55.9469 211.14 55.8872 211.493 55.8108C211.927 55.7239 212.422 55.6189 213.003 55.5439C223.498 54.1896 229.719 55.4732 229.719 55.4732L228.824 65.8977C228.824 65.8977 222.461 61.4976 214.186 62.6991L214.053 62.7162C209.382 63.319 206.934 65.7214 207.298 68.5421ZM123.064 68.0655L114.518 69.1685L114.739 66.7862C115.2 62.1632 116.723 59.7465 119.933 59.0651C123.918 58.2937 125.988 59.0648 125.988 59.0648L126.743 50.6112L118.971 51.6141L118.584 51.6641C110.68 52.6841 106.311 58.6029 105.538 67.9633L105.317 70.3455L100.004 71.0313L97.8006 71.3156L89.254 72.4185L89.4754 70.0362C89.9364 65.4132 91.4597 62.9965 94.669 62.3151C98.6547 61.5438 100.724 62.3148 100.724 62.3148L101.479 53.8612L93.7075 54.8642L93.3199 54.9142C85.4159 55.9342 81.0472 61.8529 80.2748 71.2133L80.0534 73.5956L73.0571 74.4985L72.2685 82.6892L79.2649 81.7863L75.9837 116.539L85.183 115.352L88.4641 80.5991L97.0107 79.4962L99.2137 79.2119L101.029 78.9776L104.527 78.5262L101.246 113.279L110.445 112.092L113.727 77.339L122.273 76.236L123.064 68.0655Z" fill="#002839"/>
</g>
<path d="M140.363 105.404C138.461 108.932 135.836 113.778 132.488 119.93C131.268 122.284 130.036 124.629 128.815 126.983C126.789 130.642 125.293 132.589 124.338 132.833C124.073 132.906 123.835 132.815 123.623 132.561C123.329 132.103 123.122 131.678 123.012 131.284C122.766 130.394 122.762 129.285 123.014 127.967C123.182 127.042 123.626 125.648 124.347 123.776L128.912 111.985C131.094 106.506 131.964 103.391 131.516 102.651C131.458 102.54 131.38 102.495 131.263 102.53C131.155 102.563 131.02 102.685 130.868 102.893C129.833 104.309 128.613 106.322 127.197 108.943L121.552 119.329C120.087 122.03 118.551 124.931 116.94 128.021L113.702 134.225C113.186 135.21 112.569 135.801 111.844 136.01C111.559 136.084 111.296 136.103 111.074 136.052C110.701 136.019 110.487 135.893 110.421 135.655C110.221 135.208 110.176 134.435 110.288 133.345C110.401 132.255 110.718 130.694 111.254 128.683C111.956 126.077 112.961 122.158 114.293 116.943C114.637 115.625 115.074 113.635 115.594 110.975C115.787 109.268 115.712 107.815 115.365 106.595C115.205 106.005 114.982 105.475 114.705 104.993C113.588 103.069 111.752 101.939 109.194 101.583C107.254 101.328 105.063 101.507 102.611 102.131C101.479 102.416 100.261 102.818 98.9676 103.324C93.0316 105.656 89.0875 108.93 87.1165 113.16C86.1377 115.284 85.952 116.905 86.5509 118.033C87.1086 119.091 87.9237 119.481 88.9975 119.213C89.105 119.179 89.2797 119.117 89.5084 119.007C89.737 118.896 89.9117 118.834 90.0292 118.8C90.3145 118.725 90.4949 118.769 90.5688 118.921C90.7516 119.253 90.5708 119.614 90.0164 120.006C89.5833 120.321 89.1645 120.527 88.7602 120.626C88.0017 120.816 87.2149 120.818 86.3981 120.621C85.4729 120.382 84.8325 119.93 84.4771 119.265C83.7831 117.913 84.1047 115.904 85.4317 113.24C86.9034 110.314 89.3485 107.675 92.7685 105.333C95.9761 103.143 99.4308 101.576 103.153 100.631C111.001 98.6411 115.648 100.249 117.116 105.462C117.553 107.003 117.655 108.773 117.422 110.762C117.295 111.821 117.098 112.889 116.849 113.951L114.214 124.846C114.027 125.645 113.66 127.008 113.1 128.927C112.735 130.172 112.443 131.559 112.234 133.097C112.187 133.262 112.165 133.382 112.176 133.456C112.187 133.529 112.179 133.615 112.165 133.724C112.168 133.745 112.191 133.763 112.215 133.782L118.804 120.902C121.318 116.005 123.617 111.782 125.702 108.245C128.295 103.872 130.242 101.523 131.561 101.185C132.231 101.014 132.731 101.215 133.052 101.787C133.39 102.401 133.394 103.584 133.043 105.33C132.953 105.681 132.81 106.23 132.616 106.977L128.363 117.721C126.439 122.595 125.362 125.701 125.144 127.037C124.982 128.005 125.001 129.08 125.189 130.265L134.252 113.441C136.533 109.231 138.026 106.516 138.733 105.307C139.934 103.297 140.952 102.182 141.769 101.974C142.242 101.857 142.619 102.05 142.899 102.553C143.136 102.974 143.216 103.509 143.143 104.179C143.113 104.588 143.01 105.058 142.822 105.58C142.588 106.267 142.281 107.144 141.921 108.218C139.546 116.151 138.775 121.634 139.631 124.675C140.116 126.403 141.01 127.114 142.298 126.78C144.012 126.344 146.184 124.066 148.661 119.194C148.825 118.856 149.219 118.215 149.968 118.026C150.253 117.951 150.449 117.962 150.557 118.067C150.575 118.118 150.543 118.25 150.483 118.459C149.551 120.355 148.364 122.246 146.911 124.146C145.062 126.601 143.394 128.013 141.897 128.392C140.204 128.825 138.891 128.256 137.97 126.683C137.777 126.352 137.624 125.943 137.479 125.457C136.907 123.419 137.029 120.558 137.833 116.863C138.106 115.617 138.412 114.389 138.739 113.168C139.18 111.477 139.888 108.977 140.873 105.668C140.981 105.368 141.025 104.915 140.997 104.321L140.363 105.404Z" fill="#42A4EB"/>
<path d="M163.223 116.018C163.388 115.831 163.708 115.669 164.199 115.552C164.55 115.46 164.783 115.456 164.906 115.527C165.018 115.599 164.953 115.774 164.701 116.056C162.5 118.493 160.829 120.408 159.688 121.8C158.559 123.202 157.66 123.976 157.025 124.141C156.115 124.368 155.532 124.01 155.268 123.069C155.09 122.424 155.122 121.491 155.364 120.272C152.799 123.531 150.885 125.314 149.622 125.633C148.732 125.858 148.104 125.6 147.727 124.85C147.212 123.862 147.536 121.969 148.688 119.173C150.622 114.496 153.358 111.355 156.915 109.76C157.42 109.536 157.852 109.372 158.204 109.28C159.183 109.035 159.75 109.226 159.935 109.849C160.177 110.709 159.95 111.494 159.246 112.215C159.063 112.414 158.847 112.533 158.604 112.602C158.184 112.712 157.923 112.667 157.822 112.467C157.744 112.286 157.844 112.074 158.102 111.835C158.368 111.446 158.428 111.102 158.274 110.824C158.116 110.514 157.775 110.478 157.252 110.715C156.422 111.07 155.379 111.892 154.101 113.183C152.904 114.402 151.822 115.851 150.849 117.541C149.788 119.399 149.151 121.095 148.947 122.637C148.862 123.353 148.886 123.847 149.006 124.108C149.107 124.307 149.29 124.372 149.563 124.299C150.317 124.111 151.508 123.051 153.124 121.11C154.752 119.179 156.071 117.219 157.104 115.247C157.295 114.899 157.48 114.51 157.657 114.068C157.891 113.736 158.331 113.487 158.976 113.321C159.221 113.262 159.378 113.287 159.453 113.384C159.48 113.497 159.468 113.615 159.403 113.728C158.432 115.502 157.747 116.949 157.356 118.058C156.785 119.662 156.767 121.088 157.281 122.34C158.028 121.635 159.111 120.534 160.512 119.05L163.223 116.018Z" fill="#42A4EB"/>
<path d="M175.23 106.373C175.481 106.846 175.44 107.435 175.095 108.141C174.32 108.979 173.66 109.657 173.109 110.188C172.959 110.32 172.754 110.426 172.494 110.496C172.06 110.607 171.785 110.575 171.66 110.411C171.668 110.264 171.995 109.842 172.63 109.134C172.681 109.077 172.758 108.985 172.852 108.88C172.947 108.776 173.015 108.695 173.049 108.66C173.437 108.043 173.579 107.589 173.475 107.298C173.361 107.133 173.105 107.098 172.709 107.195C172.534 107.235 172.421 107.279 172.356 107.317C170.475 107.797 168.51 109.789 166.465 113.303C165.213 115.436 164.668 117.145 164.822 118.433C164.806 118.727 164.808 118.936 164.826 119.059C164.816 119.259 164.875 119.45 165.023 119.632C165.143 119.901 165.376 119.98 165.724 119.899C166.69 119.657 167.808 118.635 169.11 116.831C169.402 116.444 169.713 115.982 170.054 115.453C171.449 113.336 172.72 112.131 173.878 111.836C174.4 111.705 174.769 111.831 174.967 112.216C175.163 112.581 175.106 113.402 174.774 114.66C174.704 114.928 174.522 115.512 174.218 116.423L174.123 116.59L173.475 118.405C174.66 117.428 177.989 112.519 179.07 110.583C179.994 108.936 179.631 111.314 179.671 111.446C179.694 111.537 179.213 113.062 179.182 113.191C179.164 113.537 175.186 118.195 174.921 118.433L173.866 119.406C173.646 119.608 173.264 120.005 172.719 120.577C170.435 127.166 168.529 132.21 166.999 135.689C164.841 140.583 163.013 143.218 161.508 143.604C160.939 143.75 160.527 143.608 160.262 143.178C159.987 142.686 159.935 141.805 160.114 140.532C161.096 133.878 164.846 127.179 171.377 120.443C171.592 119.877 171.832 119.14 172.086 118.235L172.489 116.917C172.655 116.356 172.932 115.532 173.296 114.427C173.405 114.081 173.415 113.818 173.32 113.651C173.276 113.562 173.201 113.529 173.116 113.559C172.981 113.595 172.795 113.762 172.561 114.069C172.136 114.638 171.514 115.501 170.685 116.647C168.932 118.981 167.176 120.49 165.437 121.184C164.441 121.555 163.771 121.431 163.437 120.81C163.298 120.554 163.199 120.095 163.161 119.442C163.139 119.1 163.148 118.692 163.206 118.215C163.39 116.305 164.256 114.205 165.787 111.927C167.59 109.264 169.58 107.447 171.759 106.475C172.276 106.251 172.722 106.086 173.099 105.993C173.359 105.922 173.544 105.891 173.664 105.888C174.102 105.871 174.384 105.882 174.507 105.899C174.856 105.955 175.091 106.117 175.23 106.373ZM167.122 132.178C167.988 129.942 169.12 126.883 170.51 123.003C168.493 125.376 166.793 127.861 165.409 130.447C163.829 133.398 162.782 135.696 162.255 137.32C161.968 138.208 161.778 139.074 161.696 139.929C161.625 140.584 161.663 141.039 161.803 141.306C161.918 141.47 162.069 141.537 162.241 141.487C163.186 141.236 164.824 138.142 167.122 132.178Z" fill="#42A4EB"/>
<path d="M210.444 105.746C210.666 104.609 209.679 104.361 209.374 105.549C208.044 109.116 206.841 109.91 205.666 110.827C205.626 110.422 205.548 110.042 205.455 109.696C205.346 109.309 205.199 108.937 205.006 108.591C204.244 107.227 203.013 106.765 201.32 107.193C201.126 107.246 200.903 107.302 200.659 107.36C201.389 106.44 202.388 104.966 203.659 102.948C205.255 100.411 206.045 98.7499 206.042 97.9948C206.037 97.6281 205.975 97.3516 205.874 97.1528C205.585 96.6392 204.987 96.4952 204.092 96.7199C202.176 97.2041 200.179 98.631 198.085 101.013C195.728 103.865 194.553 106.785 191.965 110.114C190.121 112.479 189.132 113.091 188.39 113.792C187.869 112.549 187.897 111.129 188.464 109.535C188.863 108.431 189.535 106.993 190.5 105.228C190.564 105.116 190.577 104.999 190.55 104.887C190.473 104.78 190.319 104.766 190.076 104.824C189.434 104.989 188.997 105.237 188.764 105.567C188.578 106.007 188.396 106.405 188.214 106.74C187.187 108.7 185.865 110.65 184.256 112.569C182.639 114.5 181.465 115.553 180.716 115.74C180.454 115.811 180.272 115.747 180.162 115.55C180.04 115.28 180.018 114.8 180.103 114.087C180.305 112.554 180.94 110.868 181.994 109.021C182.962 107.34 184.037 105.899 185.228 104.687C186.498 103.403 187.536 102.586 188.362 102.232C188.883 102.007 189.232 102.042 189.378 102.341C189.532 102.628 189.471 102.96 189.206 103.346C188.939 103.585 188.85 103.794 188.928 103.975C189.028 104.173 189.288 104.218 189.705 104.109C189.949 104.051 190.162 103.923 190.344 103.724C191.034 103.008 191.268 102.216 191.029 101.372C190.855 100.751 190.281 100.562 189.308 100.806C188.958 100.897 188.526 101.05 188.026 101.283C184.489 102.87 181.759 105.993 179.845 110.643C178.7 113.424 178.378 115.306 178.89 116.288C179.265 117.034 179.889 117.29 180.775 117.067C182.03 116.75 183.933 114.976 186.484 111.736C186.233 112.949 186.201 113.876 186.389 114.517C186.651 115.453 187.24 115.808 188.135 115.583C188.777 115.418 189.66 114.649 190.783 113.255C195.348 107.569 195.546 105.868 198.529 102.15C199.94 100.389 201.357 99.2041 202.849 98.6513C203.577 98.3926 204.014 98.4074 204.166 98.6843C204.363 99.0508 203.887 100.247 202.737 102.263C200.78 105.689 198.843 108.243 196.934 109.912C196.647 110.153 196.491 110.454 196.444 110.816C196.411 111.197 196.543 111.34 196.855 111.264C196.943 111.243 197.054 111.179 197.189 111.069C197.729 110.632 198.281 110.204 198.841 109.764C199.488 109.305 200.108 108.995 200.701 108.846C201.995 108.514 202.9 108.824 203.404 109.754C203.714 110.339 203.93 111.165 204.058 112.211C199.836 115.887 196.5 120.484 194.039 125.991C192.774 128.848 192.134 131.101 192.118 132.729C192.114 132.971 192.13 133.148 192.154 133.24C192.163 133.364 192.212 133.485 192.291 133.613C192.529 134.048 192.992 134.175 193.674 134.006C195.454 133.558 197.477 131.635 199.724 128.26C201.346 125.825 202.681 123.296 203.738 120.661C205.036 117.423 205.699 114.59 205.727 112.163C209.778 109.292 209.973 107.781 210.021 107.692C210.252 107.215 210.414 105.886 210.444 105.746ZM204.027 114.418C203.853 116.808 203.173 119.265 201.997 121.777C201.297 123.291 200.387 124.892 199.293 126.608C197.054 130.107 195.419 131.988 194.408 132.246C194.164 132.304 193.984 132.251 193.869 132.085C193.747 131.815 193.771 131.236 193.936 130.325C194.243 128.812 194.984 126.831 196.146 124.363C198.147 120.155 200.775 116.56 204.029 113.557C204.036 114.007 204.038 114.291 204.027 114.418Z" fill="#42A4EB"/>
<path d="M220.321 96.1903C220.479 95.901 222.104 95.2089 222.125 95.2798C222.149 95.3713 221.207 96.7306 220.263 98.7387C219.455 100.449 218.424 102.216 217.023 103.992C215.756 105.597 214.985 106.55 214.701 106.864C213.503 108.126 212.507 108.853 211.694 109.068C211.084 109.22 210.61 109.01 210.281 108.43C210.044 107.995 209.963 107.387 210.046 106.604C210.152 105.64 210.63 104.008 211.479 101.707C211.929 100.486 212.518 99.0606 213.227 97.4237C213.351 97.1171 213.729 96.8871 214.369 96.7326C214.63 96.662 214.805 96.6846 214.881 96.7912C214.925 96.8805 214.911 96.9867 214.832 97.1314C214.215 98.4443 213.378 100.43 212.32 103.079C212.046 103.862 211.73 105.037 211.373 106.604C211.309 107.113 211.331 107.456 211.446 107.621C211.579 107.836 211.771 107.909 212.032 107.839C212.187 107.801 212.29 107.747 212.341 107.689C212.273 107.707 212.394 107.642 212.702 107.482C214.652 106.012 217.912 100.421 220.321 96.1903ZM216.719 90.5732C216.791 90.649 216.681 90.9855 216.408 91.5804C216.299 91.854 216.122 92.2187 215.869 92.6755C215.689 92.9465 215.425 93.1325 215.08 93.2439C214.755 93.3531 214.52 93.3267 214.355 93.1671C214.352 93.1465 214.342 93.0848 214.338 92.9911C214.447 92.6444 214.662 92.1394 214.963 91.468C215.321 90.9055 215.765 90.5844 216.277 90.507C216.502 90.4716 216.647 90.4975 216.719 90.5732Z" fill="#42A4EB"/>
<path d="M230.502 103.499C229.807 104.072 229.18 104.426 228.604 104.574C228.076 104.706 227.68 104.57 227.426 104.166C227.332 104.018 227.297 103.853 227.32 103.671C227.279 103.528 227.282 103.285 227.319 102.922C227.377 102.631 227.452 102.191 227.546 101.6C227.644 101.104 228.357 98.769 229.694 94.5825C227.365 97.5812 225.3 100.846 223.503 104.408C222.714 105.972 221.986 106.801 221.321 106.895C220.984 106.954 220.846 106.779 220.925 106.359C220.971 106.196 221.016 106.022 221.058 105.828C221.099 105.633 221.185 105.329 221.337 104.922L221.787 103.733C222.16 102.774 222.707 100.752 223.449 97.6651C223.613 97.0037 223.857 95.9961 224.162 94.6548C224.217 94.3429 224.267 93.9366 224.312 93.4255C224.337 93.1907 224.349 92.9996 224.322 92.8232C223.564 93.5818 222.438 94.866 221.724 96.1892C221.525 96.4853 221.474 96.0797 220.93 96.1714C220.701 96.2071 219.948 98.2095 219.886 98.132C219.832 98.0431 220.627 96.6581 220.63 95.8669C222.262 93.0294 223.709 91.8573 224.794 91.5795C225.352 91.4441 225.724 91.5508 225.923 91.9295C226.078 92.2182 226.078 93.0198 225.932 94.3435C225.879 94.7291 225.639 95.6941 225.222 97.2376C225.069 97.7712 224.824 98.6314 224.493 99.8068L224.359 100.328C225.857 97.8109 227.229 95.8035 228.485 94.3046C228.732 93.9925 229.097 93.5199 229.578 92.8762C230.013 92.3222 230.488 91.9744 230.996 91.8446C231.436 91.7328 231.697 91.7778 231.778 91.9798C231.898 92.167 231.855 92.6251 231.631 93.3565C231.684 93.3717 231.641 93.4924 231.522 93.7164C230.907 95.556 230.06 98.3491 228.981 102.096C228.99 102.221 228.99 102.359 228.992 102.506C228.981 102.634 229.007 102.736 229.081 102.823C229.2 103.01 229.409 103.05 229.676 102.937C230.771 102.457 232.377 100.656 234.483 97.5238C234.864 96.9545 235.233 96.3759 235.591 95.7881C235.723 95.5837 236.009 95.394 236.461 95.2281C236.673 95.152 236.794 95.1492 236.814 95.2103C236.838 95.3026 236.805 95.4222 236.706 95.5702C235.709 97.2409 234.784 98.6402 233.939 99.7668C232.802 101.316 231.66 102.56 230.502 103.499Z" fill="#42A4EB"/>
<path d="M249.793 89.4829C249.969 89.1691 250.319 88.9412 250.846 88.8095C251.022 88.769 251.136 88.788 251.18 88.8778C251.217 88.9893 251.195 89.1075 251.13 89.2197C250.342 90.7052 249.383 92.199 248.242 93.6919L245.004 97.9292C244.243 98.9176 243.454 99.9299 242.64 100.977C241.391 102.429 240.164 103.353 238.96 103.759C237.641 104.209 236.769 104.001 236.333 103.123C235.803 102.099 235.97 100.787 236.82 99.1787C237.431 98.0598 238.24 96.9821 239.275 95.9217C238.541 96.1603 237.813 96.2301 237.101 96.1404C236.617 96.0886 236.274 95.895 236.08 95.5484C235.802 95.0532 235.991 94.2227 236.657 93.0662C237.664 91.3567 239.39 89.7152 241.829 88.1634C242.973 87.4273 244.032 86.932 245.023 86.6545C245.985 86.3906 246.555 86.4118 246.717 86.7411C246.899 87.1416 246.731 87.7069 246.202 88.4278C245.523 89.3649 244.926 89.9039 244.418 90.0231C244.086 90.1018 243.889 90.0709 243.824 89.9098C243.726 89.7313 243.861 89.4851 244.214 89.1412C244.918 88.4431 245.244 88.0497 245.191 87.9713C245.154 87.8598 244.99 87.8463 244.692 87.9528C243.809 88.271 242.76 88.9019 241.533 89.8259C238.504 92.0948 237.241 93.7168 237.721 94.6839C237.819 94.8624 237.982 94.939 238.214 94.9344C238.619 94.9319 239.194 94.7843 239.941 94.5022C240.86 94.1485 241.597 93.8043 242.163 93.458C242.248 93.4171 242.372 93.3718 242.547 93.321C242.741 93.268 242.899 93.3032 242.999 93.4289C243.116 93.6684 242.9 94.0497 242.358 94.5511C241.955 94.9005 241.581 95.2362 241.225 95.5594C240.868 95.8826 240.359 96.4646 239.695 97.2949C238.249 99.1159 237.581 100.599 237.682 101.734C237.878 102.427 238.224 102.704 238.73 102.575C239.94 102.273 241.965 100.325 244.775 96.7452C246.975 93.9473 248.644 91.5235 249.793 89.4829Z" fill="#42A4EB"/>
<path d="M228.772 43.9731C228.616 41.7097 227.788 39.9174 226.259 38.4983C222.177 34.681 217.687 31.6983 212.715 29.7216C211.318 29.1707 209.994 29.3426 208.709 29.8254C208.357 29.9619 208.085 30.3168 207.776 30.5748C207.834 30.7201 207.892 30.8653 207.947 30.9982C208.413 30.9258 208.872 30.8163 209.344 30.7811C210.177 30.7344 211.06 30.5064 211.839 30.7548C216.101 32.0732 219.891 34.5979 223.448 37.5743C224.543 38.496 225.602 39.5471 226.496 40.7031C228.067 42.7224 228.079 44.3204 226.471 45.9441C225.661 46.7565 224.578 47.3574 223.499 47.706C221.157 48.4597 218.761 49.0929 216.33 49.5786C213.404 50.1649 210.437 50.6419 207.456 50.9691C204.722 51.2715 201.953 51.3632 199.197 51.4663C196.127 51.5886 193.074 51.5454 190.119 49.742C188.288 48.6305 186.349 47.8952 184.409 49.0867C185.139 48.6223 185.87 48.1579 186.65 47.6507C186.433 47.4335 186.354 47.3029 186.259 47.2748C185.252 47.0243 183.159 48.2564 182.826 49.2723C182.598 49.9628 183.048 50.7609 183.764 50.7639C184.217 50.7557 184.639 50.4863 185.081 50.3408C185.729 50.1366 186.465 49.6339 187.022 49.8419C189.028 50.5704 190.97 51.532 192.858 52.3732C191.707 52.4899 190.439 52.4547 189.278 52.7864C188.083 53.1216 186.966 53.0333 185.8 52.5723C185.119 52.3014 184.451 51.9031 183.757 51.7594C182.781 51.5561 181.712 51.2741 180.815 51.4909C176.942 52.3998 173.159 53.6521 169.259 54.463C164.939 55.3541 160.541 55.9761 156.164 56.5835C154.397 56.8256 152.81 55.8783 151.395 54.5988C150.462 53.7615 150.16 52.684 150.763 51.6532C151.578 50.2485 152.334 48.6985 153.482 47.6629C158.213 43.3931 162.998 39.1808 167.92 35.1812C169.715 33.7274 171.84 32.5549 174.021 31.8554C176.215 31.1672 178.649 30.9078 180.761 33.25C181.61 34.1965 182.901 33.9649 183.345 32.8622C182.951 32.814 182.584 32.7252 182.243 32.7221C181.129 32.7216 180.525 31.9517 180.933 30.84C181.176 30.1732 181.667 29.6323 182.097 29.0724C182.362 28.7434 182.707 28.4943 183.074 28.1675C181.718 27.5242 180.736 28.3919 179.819 30.7641C177.979 30.6357 176.184 30.2888 174.461 30.4509C171.64 30.7116 169.311 32.3076 167.188 34.0465C162.828 37.5987 158.574 41.3039 154.332 45.0205C152.277 46.828 150.373 48.7965 149.384 51.6293C149.277 51.9424 148.729 52.1365 148.351 52.1874C144.453 52.6706 140.56 53.1786 136.645 53.5627C128.225 54.391 140.504 53.0457 132.075 53.8245C131.348 53.8981 130.628 54.0089 129.917 54.1062L228.772 43.9731ZM217.535 42.6691C217.271 41.336 216.509 41.6776 215.882 41.8041C209.075 43.1866 202.268 44.5691 195.466 45.9764C194.113 46.252 192.927 45.8811 191.753 44.955C189.431 43.1377 186.956 41.9027 184.138 42.1128C182.871 42.216 181.775 42.6671 181.076 43.8083C180.922 44.0505 181.106 44.5482 181.134 44.9232C181.079 45.4198 180.706 45.848 180.433 46.329C180.346 46.4889 180.492 46.8267 180.535 47.0868C180.736 47.0664 181.021 47.1383 181.125 47.0144C182.226 45.6939 183.577 44.8519 185.296 44.665C184.663 43.6462 184.44 43.6058 182.553 44.0867C183.609 43.1108 185.62 42.8315 187.428 43.6682C188.781 44.2992 190.102 45.1475 191.342 46.0544C192.465 46.8724 193.59 47.2872 194.857 47.184C195.812 47.1125 196.791 47.1265 197.714 46.9323C202.335 46.0105 206.95 45.0517 211.561 44.068C213.538 43.6535 215.512 43.1512 217.535 42.6691ZM186.606 19.5111C186.607 17.4458 188.113 15.6814 189.999 15.1251C192.308 14.4502 194.711 14.4837 197.123 14.7052C198.832 14.872 200.546 15.2775 201.991 16.6043C202.9 17.4314 202.961 18.08 202.218 18.9487C202.093 19.0873 201.89 19.1708 201.839 19.3397C201.754 19.5875 201.768 19.8758 201.745 20.1551C202.015 20.2034 202.338 20.3721 202.549 20.2751C203.86 19.6763 204.145 17.6075 203.038 16.473C202.478 15.9002 201.846 15.3724 201.173 15.0124C197.387 12.9911 193.597 13.0981 189.84 14.0204C187.983 14.4731 186.585 15.6474 185.763 17.4936C185.43 18.2326 185.223 19.0469 185.926 19.8696C186.575 20.635 187.261 20.5276 187.988 20.3155C189.342 19.9137 190.678 19.4005 192.066 19.1339C194.634 18.647 197.219 19.1657 199.773 20.1158C200.137 20.2552 200.543 20.2392 200.928 20.3009C200.96 20.1466 200.989 19.9799 201.021 19.8256C200.508 19.5376 200.018 19.1843 199.485 18.9864C195.833 17.644 192.265 17.5775 188.786 18.8116C188.113 19.0688 187.427 19.2516 186.606 19.5111ZM201.965 34.5637C201.817 34.4906 201.667 34.4051 201.518 34.332C201.226 34.7646 200.909 35.1871 200.654 35.6411C199.201 38.2816 197.274 40.3154 194.585 41.4443C192.014 42.5359 188.913 42.057 187.341 40.2392C186.011 38.7119 184.951 37.0312 184.51 34.9729C184.446 34.652 184.028 34.3921 183.776 34.1029C183.654 34.4678 183.349 34.8892 183.444 35.1943C184.808 39.5516 187.246 43.5985 192.263 43.1529C193.417 43.0486 194.582 42.7416 195.603 42.2477C198.29 40.968 200.459 39.0229 201.67 36.0166C201.847 35.5705 201.873 35.039 201.965 34.5637ZM192.238 24.8084C191.768 24.3019 191.355 23.5882 190.801 23.3295C189.964 22.9359 189.186 23.317 188.731 24.1438C188.425 24.7037 188.137 25.2996 187.944 25.9236C187.555 27.2222 187.834 28.1635 188.637 28.6236C189.464 29.0938 190.233 28.7893 190.924 27.674C191.238 27.1637 191.501 26.6207 191.791 26.1003C191.881 26.1667 191.972 26.2331 192.062 26.2995C191.835 26.7129 191.534 27.096 191.404 27.5499C191.265 28.0173 191.069 28.8305 191.269 29.0116C191.821 29.535 192.481 29.4051 193.058 28.7673C192.703 28.5389 192.424 28.3657 192.071 28.1497C192.56 27.3949 193.013 26.6942 193.382 26.1027C193.845 27.0506 194.051 28.1001 194.58 28.4117C195.537 28.982 196.361 28.2563 196.911 27.4576C197.259 26.9438 197.43 26.259 197.574 25.6148C197.752 24.8287 197.45 24.1667 196.745 23.7471C196.04 23.3275 195.318 23.3628 194.964 24.041C194.302 25.342 193.244 25.2605 192.238 24.8084ZM167.806 46.4504C167.805 46.5134 167.817 46.5877 167.816 46.6508C167.59 46.6611 167.372 46.6454 167.15 46.6805C165.478 46.8752 163.805 47.0699 162.141 47.3142C161.931 47.3481 161.795 47.7018 161.614 47.9091C161.874 48.1094 162.134 48.4482 162.386 48.4604C162.812 48.4928 163.237 48.2482 163.668 48.2423C168.601 48.1075 173.528 48.0111 178.458 47.864C178.945 47.8524 179.394 47.5424 179.854 47.3699C179.383 47.128 178.901 46.6858 178.432 46.6703C174.89 46.5508 171.351 46.5192 167.806 46.4504ZM203.527 28.5752C203.558 28.6979 203.601 28.8195 203.632 28.9422C203.846 28.9961 204.052 29.076 204.264 29.1175C205.306 29.377 205.642 29.8971 205.303 30.9513C205.148 31.4582 204.929 32.0597 204.554 32.3369C203.847 32.8745 203.016 33.2106 202.106 33.6931C202.32 33.8856 202.546 34.2278 202.793 34.2783C204.657 34.6938 207.129 31.5471 206.347 29.6241C206.1 29.0196 205.254 28.5764 204.608 28.2389C204.337 28.1152 203.892 28.4499 203.527 28.5752ZM182.948 26.5054C183.067 26.4682 183.186 26.431 183.316 26.3926C183.189 24.3026 183.394 22.3678 184.791 20.9165C184.889 20.8185 184.778 20.4897 184.764 20.2645C184.464 20.3075 184.054 20.2356 183.891 20.4159C182.698 21.7331 182.03 23.3371 182.371 25.3425C182.427 25.7524 182.749 26.1227 182.948 26.5054ZM204.071 20.549C204.34 21.4914 204.748 22.3819 204.792 23.2715C204.836 24.2365 204.529 25.1996 204.38 26.1591C205.373 26.2599 205.965 25.0163 205.958 23.0399C205.948 21.5298 205.204 20.5978 204.071 20.549ZM201.629 21.4513C201.536 21.3726 201.444 21.2938 201.351 21.215C201.021 21.6263 200.522 21.979 200.399 22.4701C200.289 22.9094 200.46 23.6728 200.761 23.9823C201.483 24.7149 201.822 25.4613 201.806 26.4704C201.802 26.7226 202.145 27.0152 202.326 27.2865C202.513 27.0409 202.897 26.7501 202.842 26.5542C202.591 25.6478 202.423 24.5567 201.853 23.9219C201.237 23.2162 201.056 22.8064 201.509 22.1057C201.63 21.9423 201.596 21.6687 201.629 21.4513ZM186.578 46.3106C186.363 46.0427 186.281 45.8874 186.168 45.8233C184.783 45.0696 182.024 46.1929 181.572 47.7247C181.515 47.9319 181.666 48.2314 181.72 48.4904C181.969 48.4148 182.246 48.374 182.465 48.2512C183.294 47.7642 184.088 47.2051 184.948 46.7654C185.409 46.5298 185.946 46.4754 186.578 46.3106ZM190.375 33.0437C190.272 33.18 190.181 33.3152 190.078 33.4515C190.361 33.7881 190.595 34.2429 190.935 34.4476C191.968 35.0608 192.895 34.6897 193.717 34.0901C193.941 33.9289 193.949 33.4244 194.052 33.0865C193.733 33.0811 193.327 32.9586 193.101 33.1074C192.233 33.6991 191.397 34.1489 190.375 33.0437ZM186.111 22.999C185.048 23.3082 184.331 25.169 184.852 25.9851C184.958 26.1506 185.219 26.2878 185.416 26.3057C185.52 26.3203 185.696 26.0758 185.725 25.9092C185.869 24.9879 185.978 24.0577 186.111 22.999Z" fill="white"/>
<path d="M128.522 54.203C129.027 54.0993 129.539 53.9652 130.051 53.9198C132.874 53.6477 135.719 53.4471 138.538 53.1459C145.63 52.3874 131.699 54.067 138.785 53.2649C141.5 52.961 144.203 52.6585 146.893 52.1799C147.635 52.0483 148.019 52.1513 148.514 52.9521C149.711 54.8846 151.227 56.5428 153.112 56.7361C155.651 56.986 158.291 57.2092 160.714 56.6434C166.521 55.2807 172.286 53.6267 177.966 51.7013C180.268 50.9277 182.331 51.0706 184.524 52.3826C186.073 53.2966 187.619 53.4557 189.121 52.6575C190.44 51.9547 191.813 52.1935 193.206 52.5778C193.77 52.7337 194.332 52.875 194.893 53.0017C195.643 53.1654 196.188 52.9386 196.491 51.9849C196.611 51.6154 197.004 51.2139 197.324 51.1911C199.86 51.0119 202.419 50.9929 204.951 50.7846C211.077 50.2877 217.123 49.3115 222.929 47.1344C225.009 46.3424 227.014 45.3518 228.276 42.9382C228.448 42.607 228.962 42.4875 229.336 42.4435C231.856 42.1478 234.388 41.9394 236.905 41.6291C240.796 41.1576 244.67 40.5696 248.567 40.1418" fill="white"/>
<path d="M238.455 42.8949C238.36 43.214 238.327 43.6868 238.221 44.0334C234.833 44.3817 240.295 43.5365 236.908 43.898C234.416 44.1686 231.909 44.3503 229.415 44.6082C229.044 44.6465 228.535 44.7508 228.365 45.0396C227.116 47.1443 225.132 48.0209 223.071 48.6989C217.335 50.6089 211.347 51.4475 205.271 51.882C202.764 52.0637 200.231 52.0803 197.72 52.2366C197.415 52.2553 197.014 52.6066 196.895 52.9288C196.595 53.7604 196.069 53.9698 195.313 53.8155C194.758 53.705 194.201 53.5818 193.642 53.4459C192.261 53.098 190.893 52.9037 189.598 53.5153C188.122 54.2103 186.581 54.0727 185.047 53.2756C182.864 52.1326 180.833 52.0068 178.554 52.6815C172.93 54.3605 167.233 55.8018 161.473 56.9913C159.073 57.4847 156.46 57.29 153.946 57.0721C152.08 56.9035 150.579 55.4575 149.393 53.7723C148.904 53.0739 148.524 52.9841 147.788 53.0989C145.135 53.5024 142.447 53.7673 139.761 54.045C139.428 54.5449 146.538 53.2798 139.516 53.9412C136.714 54.2051 143.626 53.3743 140.831 53.6116C140.323 53.6511 139.819 53.7808 139.317 53.8585C139.25 53.4393 139.182 53.0202 139.117 52.6137C139.843 52.5128 140.567 52.3992 141.286 52.3249C149.76 51.5263 135.337 53.1466 136.164 53.061C140.099 52.6671 144.014 52.1462 147.932 51.6507C148.312 51.5985 148.863 51.3995 148.971 51.0784C149.965 48.1736 151.888 46.1411 153.945 44.3014C158.209 40.4903 162.487 36.6908 166.869 33.0482C169.015 31.2639 171.356 29.6273 174.18 29.3611C175.913 29.1949 177.718 29.5506 179.567 29.6823C180.5 27.2486 181.477 26.3599 182.84 27.0196C182.473 27.3674 182.124 27.6102 181.858 27.9475C181.425 28.5217 180.932 29.0763 180.688 29.7601C180.277 30.9001 180.884 31.6896 182.004 31.6901C182.358 31.6922 182.714 31.7716 183.112 31.8337C182.677 32.9634 181.379 33.2009 180.515 32.2314C178.403 29.8285 175.942 30.0829 173.738 30.8014C171.544 31.506 169.408 32.7083 167.605 34.2118C162.657 38.3131 157.835 42.6338 153.091 47.0111C151.948 48.0719 151.187 49.6613 150.357 51.103C149.751 52.16 150.065 53.2638 150.992 54.1235C152.414 55.4356 154.012 56.4197 155.787 56.1587C160.197 55.522 164.608 54.898 168.951 53.9842C172.872 53.1527 176.677 51.8812 180.569 50.9365C181.47 50.7142 182.545 51.0034 183.527 51.2118C184.224 51.3592 184.884 51.7688 185.58 52.0455C186.753 52.5182 187.887 52.6076 189.077 52.265C190.246 51.9375 191.529 51.9598 192.676 51.8413C190.777 50.9787 188.823 49.9799 186.808 49.2455C186.237 49.0334 185.511 49.5604 184.857 49.7571C184.411 49.8937 183.978 50.1838 183.533 50.191C182.827 50.1995 182.373 49.3684 182.59 48.6615C182.925 47.6197 185.029 46.3562 186.042 46.6131C186.138 46.6419 186.216 46.7758 186.435 46.9986C185.66 47.5048 184.914 47.9822 184.182 48.4711C186.133 47.2493 188.093 48.0022 189.922 49.1431C192.893 50.9924 195.962 51.0367 199.049 50.9112C201.819 50.8056 204.603 50.7115 207.352 50.4015C210.348 50.0659 213.331 49.5767 216.272 48.9756C218.706 48.4787 221.114 47.8294 223.48 47.0554C224.565 46.6979 225.665 46.0805 226.468 45.2486C228.084 43.5836 228.072 41.9449 226.493 39.8742C225.594 38.6888 224.54 37.6098 223.429 36.6658C219.852 33.6136 216.045 31.0374 211.758 29.6728C210.963 29.4192 210.087 29.6519 209.249 29.6997C208.773 29.7231 208.313 29.8481 207.845 29.9223C207.787 29.7734 207.729 29.6244 207.673 29.4882C207.984 29.2236 208.257 28.8597 208.611 28.7197C209.891 28.2258 211.231 28.0356 212.638 28.6133C217.637 30.6403 222.153 33.7115 226.254 37.6133C227.78 39.0697 228.624 40.9064 228.781 43.2275" fill="#002839"/>
<path d="M217.58 41.1591C215.536 41.6726 213.543 42.2077 211.534 42.6504C206.877 43.6981 202.216 44.7195 197.549 45.7013C196.615 45.895 195.626 45.88 194.664 45.9694C193.385 46.0794 192.248 45.6375 191.114 44.7662C189.851 43.8014 188.528 42.8966 187.16 42.2245C185.332 41.3201 183.315 41.6296 182.238 42.6703C184.143 42.1581 184.368 42.2011 185.008 43.2863C183.269 43.4721 181.905 44.369 180.795 45.7888C180.69 45.9208 180.402 45.8442 180.199 45.8659C180.156 45.5889 179.997 45.2303 180.096 45.0587C180.384 44.5451 180.76 44.0891 180.804 43.5613C180.776 43.1618 180.602 42.6306 180.745 42.3738C181.451 41.1582 182.547 40.6789 183.838 40.5677C186.682 40.3308 189.182 41.6463 191.529 43.5952C192.715 44.5816 193.913 44.9767 195.279 44.6832C202.149 43.1842 209.024 41.7116 215.898 40.239C216.554 40.1018 217.324 39.7379 217.58 41.1591Z" fill="#002839"/>
<path d="M187.669 20.0915C188.491 19.8455 189.185 19.6501 189.851 19.4199C193.325 18.1915 196.888 18.2577 200.535 19.5939C201.067 19.7908 201.556 20.1425 202.069 20.4291C202.037 20.5827 202.008 20.7486 201.977 20.9022C201.581 20.8419 201.184 20.8444 200.812 20.7191C198.261 19.7735 195.682 19.2695 193.115 19.7418C191.729 20.0072 190.395 20.518 189.042 20.9179C188.317 21.129 187.631 21.2359 186.983 20.4741C186.281 19.6552 186.488 18.8446 186.82 18.1091C187.652 16.2704 189.037 15.1027 190.892 14.6521C194.655 13.7329 198.439 13.6264 202.21 15.6395C202.882 15.9978 203.524 16.522 204.072 17.0933C205.178 18.2225 204.893 20.2817 203.584 20.8777C203.373 20.9742 203.05 20.8063 202.781 20.7583C202.804 20.4803 202.79 20.1933 202.875 19.9467C202.926 19.7785 203.139 19.6943 203.253 19.5575C203.984 18.694 203.923 18.0484 203.027 17.2239C201.584 15.9033 199.883 15.4985 198.165 15.3337C195.757 15.1132 193.357 15.0799 191.05 15.7516C189.161 16.2683 187.669 18.0234 187.669 20.0915Z" fill="#002839"/>
<path d="M201.966 33.7885C201.876 34.2678 201.859 34.7771 201.684 35.2155C200.48 38.1708 198.324 40.0827 195.652 41.3408C194.626 41.8273 193.467 42.1291 192.332 42.2306C187.344 42.6686 184.92 38.6904 183.565 34.4072C183.47 34.1073 183.774 33.6931 183.895 33.3343C184.145 33.6187 184.549 33.8753 184.624 34.1896C185.062 36.2129 186.116 37.865 187.439 39.3664C189.012 41.1521 192.084 41.6241 194.64 40.551C197.301 39.4302 199.227 37.4299 200.673 34.8464C200.925 34.388 201.242 33.9848 201.533 33.5596C201.669 33.6325 201.817 33.7044 201.966 33.7885Z" fill="#002839"/>
<path d="M192.856 24.8706C193.85 25.2995 194.899 25.3791 195.565 24.1087C195.907 23.4604 196.631 23.4127 197.329 23.8221C198.028 24.2314 198.327 24.8772 198.151 25.6441C198.008 26.2726 197.827 26.9417 197.494 27.4417C196.96 28.2198 196.133 28.9289 195.184 28.3725C194.661 28.0685 194.456 27.0448 193.998 26.1201C193.62 26.686 193.182 27.3685 192.699 28.1169C193.052 28.3397 193.327 28.5087 193.678 28.7194C193.106 29.3416 192.463 29.4672 191.905 28.9578C191.718 28.7799 191.901 27.9878 192.039 27.5318C192.179 27.0879 192.465 26.7153 192.691 26.312C192.601 26.2472 192.512 26.1825 192.422 26.1177C192.135 26.6254 191.875 27.1551 191.564 27.6529C190.879 28.7409 190.107 29.0391 189.298 28.5792C188.503 28.1304 188.226 27.2122 188.611 25.9453C188.802 25.3366 189.088 24.7553 189.391 24.2091C189.842 23.4025 190.602 23.0318 191.442 23.4147C191.982 23.6802 192.379 24.3776 192.856 24.8706ZM189.672 28.0506C190.757 27.4018 191.368 26.4809 191.556 25.246C191.6 24.9713 191.39 24.5869 191.209 24.3102C191.148 24.2179 190.785 24.2665 190.62 24.3567C189.604 24.8758 189.114 26.5953 189.672 28.0506ZM195.416 27.6001C196.492 27.505 197.469 26.1421 197.218 25.1107C197.045 24.4155 196.662 24.2081 196.19 24.6851C195.428 25.4491 195.031 26.3732 195.416 27.6001Z" fill="#002839"/>
<path d="M167.095 45.7169C170.681 45.7914 174.271 45.8244 177.865 45.9525C178.327 45.9705 178.826 46.4479 179.302 46.7096C178.837 46.8964 178.372 47.2331 177.891 47.2444C172.905 47.4036 167.922 47.508 162.934 47.6538C162.487 47.6614 162.068 47.925 161.637 47.8899C161.382 47.8767 161.119 47.51 160.856 47.2932C161.029 47.07 161.177 46.686 161.389 46.6493C163.072 46.385 164.764 46.1743 166.455 45.9635C166.681 45.939 166.9 45.9425 167.128 45.9314C167.107 45.8656 167.096 45.7986 167.095 45.7169Z" fill="#002839"/>
<path d="M204.065 27.9435C204.42 27.8242 204.862 27.5044 205.126 27.634C205.75 27.9436 206.572 28.3774 206.811 28.9531C207.56 30.7972 205.173 33.7809 203.367 33.3852C203.128 33.3371 202.919 33.0101 202.701 32.8279C203.581 32.3566 204.399 32.0473 205.073 31.5364C205.435 31.2606 205.639 30.7007 205.8 30.217C206.117 29.2141 205.801 28.706 204.792 28.4707C204.585 28.4193 204.387 28.3551 204.18 28.3037C204.126 28.1772 204.096 28.0604 204.065 27.9435Z" fill="black"/>
<path d="M183.608 26.8825C183.419 26.5218 183.113 26.1728 183.051 25.7992C182.728 23.9091 183.362 22.3973 184.493 21.1559C184.648 20.986 185.037 21.0537 185.321 21.0132C185.335 21.2255 185.44 21.5353 185.347 21.6277C184.032 22.9945 183.838 24.818 183.948 26.7889C183.844 26.8113 183.721 26.8474 183.608 26.8825Z" fill="#002839"/>
<path d="M205.04 20.4932C206.083 20.54 206.785 21.4122 206.793 22.8274C206.801 24.6911 206.239 25.846 205.326 25.7506C205.473 24.8387 205.751 23.9489 205.709 23.0445C205.67 22.2224 205.289 21.3763 205.04 20.4932Z" fill="#002839"/>
<path d="M202.435 21.4661C202.405 21.6693 202.424 21.9145 202.333 22.065C201.93 22.7304 202.086 23.1145 202.648 23.7624C203.16 24.3567 203.324 25.3753 203.554 26.2224C203.602 26.3939 203.242 26.6783 203.081 26.9068C202.916 26.6533 202.601 26.3798 202.605 26.1441C202.619 25.2011 202.309 24.5035 201.648 23.8189C201.372 23.5296 201.214 22.8046 201.316 22.4057C201.43 21.9467 201.876 21.618 202.189 21.2326C202.265 21.3189 202.35 21.3925 202.435 21.4661Z" fill="#002839"/>
<path d="M186.083 45.2005C185.454 45.3632 184.906 45.4058 184.458 45.6373C183.613 46.0702 182.821 46.622 181.984 47.1039C181.756 47.2263 181.49 47.2653 181.242 47.34C181.189 47.0844 181.038 46.7888 181.095 46.5842C181.546 45.0723 184.293 43.9635 185.673 44.7073C185.799 44.7817 185.871 44.9484 186.083 45.2005Z" fill="#002839"/>
<path d="M190.622 32.5585C191.652 33.6508 192.485 33.2057 193.34 32.6213C193.565 32.4741 193.97 32.5953 194.288 32.6007C194.187 32.9472 194.177 33.4341 193.954 33.5936C193.143 34.1734 192.21 34.554 191.18 33.9474C190.841 33.7449 190.608 33.2949 190.326 32.962C190.426 32.8149 190.518 32.6811 190.622 32.5585Z" fill="#002839"/>
<path d="M186.667 23.4919C186.538 24.4792 186.437 25.3686 186.299 26.2379C186.271 26.3952 186.113 26.6132 186.004 26.6122C185.818 26.5953 185.571 26.4775 185.467 26.3097C184.961 25.5407 185.656 23.7954 186.667 23.4919Z" fill="#002839"/>
<path d="M189.633 28.0973C189.105 26.6959 189.569 25.0285 190.55 24.5012C190.71 24.4137 191.062 24.3666 191.12 24.4561C191.296 24.7246 191.5 25.0976 191.457 25.3641C191.277 26.5741 190.684 27.4677 189.633 28.0973Z" fill="white"/>
<path d="M195.509 27.4521C195.135 26.2587 195.522 25.3598 196.263 24.6167C196.723 24.1526 197.105 24.3415 197.263 25.0306C197.508 26.0339 196.558 27.3713 195.509 27.4521Z" fill="white"/>
<defs>
<clipPath id="clip0">
<rect width="274.73" height="93.9553" fill="white" transform="translate(4.94342 66.2063) rotate(-7.35351)"/>
</clipPath>
</defs>
</svg>
