<svg width="180" height="100" viewBox="0 0 180 100" fill="none" xmlns="http://www.w3.org/2000/svg">
<path d="M11.4524 27.1234L11.5164 27.6195L10.7082 27.7238L10.6441 27.2277L11.4524 27.1234ZM13.1648 27.4068L12.3566 27.5111L12.2926 27.015L13.1008 26.9107L13.1648 27.4068ZM12.5156 28.7434L12.4454 28.1993L13.2536 28.095L13.3238 28.6391L12.5156 28.7434ZM10.8672 28.9561L10.797 28.412L11.6052 28.3077L11.6754 28.8518L10.8672 28.9561ZM10.1442 30.0989L11.0004 29.9884L10.9612 29.6843L13.4178 29.3673L13.4509 29.6233L14.3471 29.5077L13.903 26.0668L9.69396 26.61L10.1442 30.0989ZM12.5651 25.0924L10.6686 25.3371L10.5932 24.753L12.4897 24.5082L12.5651 25.0924ZM9.64306 24.1353L9.90536 26.1678L13.5623 25.6959L13.3 23.6634L9.64306 24.1353ZM9.16835 23.7979L13.6095 23.2248L13.5062 22.4246L9.06508 22.9977L9.16835 23.7979ZM14.7481 22.907L13.9239 23.0134L14.5053 27.5185L15.3295 27.4122L14.7481 22.907ZM15.1799 22.0296L15.9761 28.1992C15.9937 28.3352 15.9439 28.3905 15.8078 28.408C15.6638 28.4266 15.1997 28.4865 14.7415 28.5294C14.9036 28.7769 15.1034 29.1904 15.1705 29.4584C15.8507 29.3706 16.3267 29.2766 16.6101 29.0773C16.9026 28.885 16.9735 28.6155 16.9043 28.0794L16.1082 21.9098L15.1799 22.0296Z" fill="#002839"/>
<path d="M23.4858 22.9102C23.4257 23.1376 23.3596 23.3821 23.2883 23.5865L21.792 23.7796L21.9249 23.7381C21.8462 23.5692 21.7122 23.3506 21.5733 23.157L23.4858 22.9102ZM26.531 26.1455L26.4298 25.3613L23.317 25.7631L23.2716 25.411L25.6722 25.1012L25.5834 24.413L23.1828 24.7228L23.1363 24.3627L25.913 24.0044L25.817 23.2602L24.2486 23.4626C24.3438 23.255 24.444 23.0225 24.5421 22.7739L26.0465 22.5797L25.9463 21.8035L24.906 21.9378C25.0539 21.634 25.2235 21.246 25.4001 20.849L24.3688 20.738C24.3022 21.1046 24.1641 21.6105 24.0144 21.9634L24.3139 22.0142L23.6017 22.1061L23.4334 20.8018L22.5371 20.9174L22.7055 22.2218L22.1133 22.2982L21.945 20.9939L21.0568 21.1085L21.2251 22.4128L20.4969 22.5068L20.8704 22.3122C20.7181 22.0145 20.3931 21.5765 20.1167 21.2624L19.3366 21.6478C19.5519 21.9291 19.8095 22.2864 19.9608 22.576L18.8885 22.7144L18.9887 23.4906L20.6611 23.2747L20.5671 23.3031C20.6949 23.4738 20.8299 23.7004 20.9197 23.8922L19.3994 24.0884L19.4954 24.8326L22.2001 24.4835L22.2466 24.8436L19.942 25.141L20.0308 25.8292L22.3354 25.5318L22.3808 25.8839L19.324 26.2784L19.4252 27.0626L21.7218 26.7662C21.0873 27.2711 20.1865 27.729 19.314 28.0288C19.5388 28.195 19.8584 28.528 20.0244 28.7425C20.9446 28.3715 21.869 27.7804 22.5378 27.1002L22.7175 28.4925L23.6537 28.3717L23.4678 26.9314C24.2845 27.4605 25.3148 27.8157 26.331 27.9367C26.442 27.6621 26.6704 27.2258 26.8596 26.9899C25.9128 26.9656 24.9443 26.7734 24.2104 26.445L26.531 26.1455Z" fill="#002839"/>
<path d="M31.2935 23.5866C31.3658 24.1467 31.8898 24.551 32.4499 24.4787C33.0101 24.4064 33.4143 23.8824 33.342 23.3222C33.2697 22.7621 32.7457 22.3579 32.1856 22.4302C31.6254 22.5025 31.2212 23.0265 31.2935 23.5866Z" fill="#002839"/>
<path d="M41.6252 23.2702L41.5632 22.7901L42.2914 22.6961L42.3533 23.1762L41.6252 23.2702ZM41.4042 21.5578L42.1323 21.4638L42.1891 21.9039L41.461 21.9979L41.4042 21.5578ZM41.2513 20.3735L41.9795 20.2795L42.0404 20.7516L41.3123 20.8456L41.2513 20.3735ZM43.7568 21.2542L43.8136 21.6943L43.1014 21.7862L43.0446 21.3461L43.7568 21.2542ZM43.9778 22.9666L43.2656 23.0585L43.2036 22.5784L43.9158 22.4865L43.9778 22.9666ZM44.9989 23.567L44.844 22.3667L45.6282 22.2655L45.526 21.4733L44.7418 21.5745L44.5931 20.4222L42.9527 20.6339L42.8917 20.1618L45.1643 19.8685L45.0631 19.0843L43.5427 19.2805C43.7288 19.0205 43.9129 18.7446 44.0938 18.4447L43.0283 18.2568C42.8866 18.6086 42.6292 19.073 42.3904 19.4292L40.534 19.6688L40.7895 19.5056C40.5843 19.2392 40.1566 18.8877 39.7934 18.658L38.9728 19.1706C39.2227 19.3418 39.4878 19.5679 39.6938 19.7772L38.1014 19.9827L38.2026 20.7669L40.3391 20.4912L40.4 20.9633L38.8956 21.1574L38.9876 21.8696L40.4919 21.6755L40.5487 22.1156L38.2842 22.4078L38.3864 23.2L40.651 22.9078L40.7129 23.3879L39.1285 23.5924L39.2215 24.3126L40.2937 24.1742C39.8606 24.7263 39.2212 25.2563 38.5811 25.5911C38.8028 25.7333 39.1182 26.0343 39.2822 26.2328C39.8702 25.8722 40.4525 25.3415 40.8885 24.7483L41.0651 26.1166L41.9773 25.9989L41.7181 23.9904L42.4463 23.8964L42.7055 25.9049L43.6177 25.7872L43.4308 24.3388C44.0392 24.8298 44.7643 25.2162 45.4737 25.4175C45.5867 25.1589 45.8134 24.7717 46.0067 24.5677C45.2646 24.4276 44.4827 24.1054 43.8946 23.7095L44.9989 23.567Z" fill="#002839"/>
<path d="M52.2931 19.1926C52.233 19.42 52.1669 19.6644 52.0956 19.8689L50.5993 20.062L50.7322 20.0204C50.6535 19.8516 50.5195 19.633 50.3806 19.4394L52.2931 19.1926ZM55.3383 22.4279L55.2371 21.6437L52.1243 22.0454L52.0789 21.6933L54.4795 21.3835L54.3907 20.6953L51.9901 21.0052L51.9436 20.6451L54.7203 20.2867L54.6243 19.5425L53.0559 19.7449C53.1511 19.5374 53.2513 19.3048 53.3494 19.0562L54.8537 18.8621L54.7536 18.0859L53.7133 18.2201C53.8612 17.9163 54.0308 17.5283 54.2074 17.1313L53.1761 17.0204C53.1095 17.3869 52.9714 17.8929 52.8217 18.2457L53.1212 18.2966L52.409 18.3885L52.2407 17.0841L51.3444 17.1998L51.5128 18.5041L50.9206 18.5806L50.7523 17.2762L49.8641 17.3908L50.0324 18.6952L49.3042 18.7892L49.6777 18.5945C49.5254 18.2969 49.2004 17.8589 48.9239 17.5447L48.1439 17.9301C48.3592 18.2115 48.6168 18.5687 48.7681 18.8583L47.6958 18.9967L47.796 19.7729L49.4684 19.5571L49.3744 19.5855C49.5022 19.7561 49.6372 19.9827 49.727 20.1745L48.2067 20.3707L48.3027 21.1149L51.0074 20.7659L51.0539 21.126L48.7493 21.4234L48.8381 22.1116L51.1427 21.8141L51.1881 22.1662L48.1313 22.5607L48.2325 23.3449L50.5291 23.0485C49.8946 23.5535 48.9938 24.0114 48.1213 24.3111C48.3461 24.4773 48.6657 24.8103 48.8317 25.0248C49.7519 24.6539 50.6763 24.0627 51.3451 23.3825L51.5248 24.7749L52.461 24.6541L52.2751 23.2137C53.0918 23.7429 54.1221 24.098 55.1383 24.2191C55.2493 23.9444 55.4777 23.5082 55.6669 23.2722C54.7201 23.248 53.7516 23.0557 53.0177 22.7274L55.3383 22.4279Z" fill="#002839"/>
<path d="M60.3805 17.2458L60.5207 18.2691C61.5243 18.229 62.9567 18.0442 63.9216 17.8302L63.7894 16.8059C62.9466 17.0204 61.3743 17.2559 60.3805 17.2458ZM60.535 20.5858C60.5025 20.9642 60.4898 21.3075 60.5322 21.6356C60.6365 22.4438 61.3486 22.8563 62.717 22.6797C63.6132 22.564 64.2451 22.4174 64.7449 22.2553L64.5825 21.1861C63.9129 21.419 63.337 21.5584 62.6248 21.6503C61.8246 21.7535 61.4937 21.5847 61.4483 21.2326C61.4204 21.0166 61.4276 20.8204 61.4586 20.5561L60.535 20.5858ZM57.9724 16.9302C58.0045 17.1782 57.9957 17.4885 57.9926 17.7167C57.9831 18.3362 57.9154 19.7035 58.0693 20.8958C58.2077 21.9681 58.4847 22.9167 58.716 23.4482L59.62 23.2665C59.5975 23.1555 59.581 23.0275 59.5616 22.9405C59.5513 22.8604 59.5526 22.6813 59.5621 22.5662C59.5874 22.1317 59.741 21.2414 59.8793 20.5484L59.3336 20.2283C59.2546 20.4988 59.1607 20.7794 59.0848 21.0739C59.0391 20.909 59.0063 20.718 58.9867 20.5659C58.8845 19.7737 58.9521 18.1542 58.9959 17.6116C59.0094 17.4635 59.0538 17.051 59.0971 16.8827L57.9724 16.9302Z" fill="#002839"/>
<path d="M70.8769 15.8099L71.9091 15.6767L72.03 16.6129C72.0981 17.1411 72.1929 17.3078 72.3645 17.4402C72.5271 17.5657 72.7755 17.5987 72.9915 17.5708L73.4716 17.5089C73.6237 17.4892 73.8276 17.4304 73.9394 17.3509C74.0811 17.2512 74.1637 17.1348 74.199 16.9676C74.2424 16.7992 74.2349 16.426 74.2075 16.0878C73.9732 16.0367 73.6335 15.926 73.4468 15.8037C73.477 16.1008 73.5021 16.3579 73.5005 16.472C73.499 16.586 73.4732 16.6382 73.4432 16.6583C73.4213 16.6774 73.3663 16.6927 73.3263 16.6978L73.1583 16.7195C73.1102 16.7257 73.0692 16.7229 73.0421 16.702C73.014 16.673 73.0047 16.601 72.9861 16.457L72.762 14.7206L69.8653 15.0944L69.9716 15.9186C70.0418 16.4627 70.0437 17.1703 69.3885 17.7673C69.61 17.8445 70.0612 18.0629 70.2419 18.2023C70.9497 17.5089 70.974 16.5621 70.8789 15.8259L70.8769 15.8099ZM68.1737 15.0361C67.8988 15.6166 67.2713 16.3647 66.6898 16.8384C66.8676 17.0188 67.1343 17.383 67.2652 17.5776C67.9624 16.9914 68.6843 16.0929 69.1164 15.2805L68.1737 15.0361ZM68.6376 16.6765C68.2597 17.5306 67.5628 18.4341 66.8917 19.0333C67.0786 19.2207 67.3987 19.6837 67.5135 19.8804C67.7229 19.6744 67.9281 19.4364 68.1382 19.1734L68.576 22.5663L69.4963 22.4475L68.9283 18.0464C69.157 17.6752 69.3676 17.2901 69.5313 16.9191L68.6376 16.6765ZM72.7603 18.8047C72.5969 19.2407 72.3553 19.6379 72.0605 20.0014C71.6831 19.7247 71.3646 19.3997 71.1118 19.0174L72.7603 18.8047ZM73.3008 17.8238L73.1299 17.8865L69.721 18.3264L69.8315 19.1827L70.9598 19.037L70.2755 19.345C70.6018 19.8561 70.9748 20.2879 71.4116 20.6465C70.9118 21.0608 70.3367 21.3953 69.7012 21.6401C69.902 21.8094 70.1806 22.1395 70.3246 22.3731C71.0249 22.0631 71.6658 21.6713 72.2144 21.1937C72.8442 21.5355 73.5807 21.7577 74.4296 21.8434C74.5326 21.5698 74.7391 21.1526 74.9283 20.9167C74.1666 20.8767 73.4794 20.7213 72.894 20.4714C73.4268 19.8088 73.8029 19.0037 73.9781 18.0292L73.3008 17.8238Z" fill="#002839"/>
<path d="M83.4292 14.4829L80.5085 14.8598L80.3288 13.4674L79.3365 13.5955L79.5162 14.9878L76.6755 15.3544L76.7963 16.2907L83.55 15.4191L83.4292 14.4829ZM79.9187 19.3046C79.7303 18.4747 79.2742 17.2726 78.771 16.3368L77.8898 16.6946C78.3679 17.6254 78.8132 18.8696 78.9766 19.6946L79.9187 19.3046ZM82.0334 19.5523C82.2566 18.5717 82.4654 17.2268 82.5937 16.0144L81.4716 15.9558C81.4523 17.1298 81.2602 18.6677 81.0251 19.6824L77.0401 20.1967L77.163 21.1489L84.4048 20.2144L84.2819 19.2621L82.0334 19.5523Z" fill="#002839"/>
<path d="M86.23 15.1302L86.8227 16.1927C87.5994 15.7182 89.3706 14.6923 90.5389 14.5416C91.4912 14.4187 92.0766 14.9207 92.1727 15.6649C92.3503 17.0413 90.7504 17.8823 88.6121 18.2071L89.2045 19.2045C91.9786 18.7 93.5423 17.3267 93.311 15.5343C93.122 14.0699 91.8874 13.3913 90.455 13.5762C89.2947 13.7259 87.7596 14.5016 87.1672 14.7652C86.8905 14.8904 86.5118 15.045 86.23 15.1302Z" fill="#002839"/>
<g clip-path="url(#clip0)">
<path fill-rule="evenodd" clip-rule="evenodd" d="M5.20676 60.4547C3.68523 48.6647 11.5652 38.1684 23.1488 36.6735C32.8777 35.4179 41.2064 40.416 42.4712 50.217C44.0033 62.0886 36.1993 72.5751 24.5397 74.0798C14.8108 75.3354 6.48213 70.3373 5.20676 60.4547ZM11.8274 59.1984C12.7011 65.9688 18.0289 69.2554 24.2195 68.4565C31.695 67.4917 37.0489 60.1601 35.9379 51.5513C35.0739 44.8563 29.6541 41.505 23.5458 42.2933C16.0703 43.258 10.7164 50.5896 11.8274 59.1984ZM102.118 48.1139C102.304 49.5508 102.289 51.3325 102.151 52.1604L81.8897 54.7752L81.9208 55.6643C82.3013 58.6134 85.3754 61.5402 90.6861 60.8548C93.0978 60.5436 95.7294 59.3938 97.4028 57.8L99.6789 61.4741C97.5036 63.6175 94.1812 65.0988 90.8833 65.5244C82.7622 66.5725 77.1226 62.7647 76.2076 55.6744C75.1071 47.1471 80.6232 39.2269 89.1494 38.1265C95.8962 37.2495 101.224 41.1804 102.118 48.1139ZM96.9613 48.0458C96.5297 44.7015 93.916 42.2001 89.3332 42.7915C85.1492 43.3314 82.2795 47.0253 82.014 50.702L96.9713 48.7718C97.0334 48.6043 96.9921 48.2843 96.9613 48.0458ZM120.428 34.1664C116.168 34.7162 113.64 36.6628 111.485 39.6138L111.898 35.835L106.189 36.5718L103.821 63.2041L109.531 62.4672L111.047 45.0989C112.429 42.4901 114.845 40.3157 117.579 39.9628C118.624 39.828 119.53 39.8705 119.939 39.9006L120.428 34.1664ZM128.072 40.7903C128.268 42.3025 130.71 42.8803 133.568 43.4811C137.511 44.2672 142.392 45.3405 142.896 49.894C143.503 54.5937 140.156 59.0764 133.505 60.1005L133.183 60.1421C128.359 60.7646 123.894 59.7206 120.768 57.0428L123.644 52.7038C125.341 54.4305 129.14 56.0453 132.936 55.6384L133.094 55.618C136.069 55.234 137.619 53.3308 137.383 51.4986C137.157 49.748 134.549 49.1914 131.692 48.5905L131.639 48.5783C127.698 47.7152 123.029 46.6911 122.476 42.4055C121.962 38.4212 124.547 34.3622 130.091 32.996C130.268 32.9731 130.457 32.9361 130.676 32.8887C130.946 32.8347 131.252 32.7696 131.613 32.723C138.127 31.8825 141.988 32.6791 141.988 32.6791L141.433 39.149C141.433 39.149 137.483 36.4182 132.347 37.1639L132.265 37.1745C129.366 37.5486 127.847 39.0396 128.072 40.7903ZM75.793 40.4945L70.4886 41.179L70.626 39.7005C70.9121 36.8312 71.8576 35.3313 73.8494 34.9084C76.3231 34.4297 77.6076 34.9082 77.6076 34.9082L78.076 29.6615L73.2527 30.284L73.0121 30.315C68.1065 30.9481 65.3951 34.6216 64.9157 40.431L64.7783 41.9096L61.4805 42.3352L60.1133 42.5116L54.8089 43.1962L54.9463 41.7176C55.2324 38.8484 56.1778 37.3484 58.1697 36.9255C60.6434 36.4468 61.9278 36.9254 61.9278 36.9254L62.3962 31.6787L57.5729 32.3011L57.3324 32.3322C52.4267 32.9653 49.7154 36.6387 49.236 42.4482L49.0986 43.9267L44.7563 44.4871L44.2669 49.5706L48.6092 49.0102L46.5727 70.5794L52.2822 69.8425L54.3186 48.2734L59.623 47.5889L60.9903 47.4124L62.117 47.267L64.2881 46.9868L62.2517 68.556L67.9612 67.8191L69.9976 46.25L75.302 45.5655L75.793 40.4945Z" fill="#002839"/>
</g>
<path d="M86.833 63.6071C85.5903 65.7707 83.8764 68.7422 81.6903 72.5154C80.8919 73.9585 80.0864 75.3959 79.288 76.839C77.9661 79.0834 77.0007 80.2814 76.399 80.4385C76.2318 80.4847 76.0837 80.4314 75.9546 80.2788C75.7771 80.0026 75.6536 79.7458 75.5902 79.5075C75.4487 78.9681 75.4627 78.2933 75.6392 77.4887C75.7575 76.9242 76.0562 76.0725 76.5345 74.9272L79.5642 67.712C81.0098 64.3588 81.6002 62.4555 81.3298 62.0094C81.2954 61.9424 81.247 61.9159 81.1729 61.9378C81.1051 61.959 81.0187 62.0342 80.9201 62.1626C80.2518 63.0333 79.4582 64.2687 78.5337 65.8759L74.8475 72.2452C73.8911 73.9016 72.8865 75.6803 71.8331 77.575L69.7152 81.3787C69.3776 81.9828 68.9828 82.3478 68.5255 82.4809C68.3458 82.5286 68.1807 82.5422 68.0422 82.5137C67.809 82.4967 67.6773 82.422 67.6391 82.2778C67.5202 82.0074 67.5033 81.537 67.5892 80.8729C67.6752 80.2088 67.8965 79.2564 68.2611 78.0278C68.7384 76.4359 69.4248 74.0421 70.3343 70.8574C70.5686 70.0524 70.8709 68.8377 71.235 67.2143C71.3806 66.1741 71.3543 65.2906 71.1545 64.5511C71.0626 64.1933 70.9306 63.8728 70.7641 63.5823C70.0919 62.4212 68.9578 61.7497 67.3603 61.5552C66.1488 61.4173 64.7734 61.5454 63.2285 61.9464C62.5148 62.13 61.7463 62.385 60.9286 62.7043C57.1761 64.1756 54.6579 66.2027 53.3623 68.7934C52.7185 70.0948 52.5789 71.0826 52.9379 71.7639C53.2721 72.4029 53.7771 72.6329 54.4537 72.4602C54.5215 72.4391 54.6318 72.3998 54.7767 72.3305C54.9216 72.2611 55.0319 72.2218 55.106 72.1999C55.2858 72.1522 55.3982 72.1774 55.4423 72.2691C55.5521 72.4694 55.4336 72.6909 55.0806 72.9343C54.8047 73.1296 54.5394 73.2589 54.2847 73.3221C53.8068 73.4448 53.3138 73.4529 52.8049 73.3398C52.2287 73.2026 51.834 72.9334 51.6209 72.532C51.2056 71.7151 51.4359 70.4898 52.3056 68.8569C53.2697 67.0636 54.8395 65.4364 57.0158 63.9815C59.0569 62.6207 61.2438 61.637 63.5891 61.0289C68.5345 59.7494 71.423 60.6869 72.2681 63.8464C72.5192 64.7804 72.5579 65.8565 72.3836 67.0686C72.2888 67.7143 72.1498 68.3655 71.9784 69.0141L70.1708 75.6667C70.0424 76.1548 69.7926 76.9876 69.4141 78.1597C69.1677 78.921 68.9646 79.7676 68.8119 80.7052C68.7802 80.8061 68.7642 80.8792 68.77 80.9238C68.7759 80.9684 68.77 81.0209 68.7594 81.0869C68.7611 81.0997 68.7754 81.1109 68.7897 81.1221L73.1031 73.227C74.7488 70.2249 76.2499 67.6351 77.607 65.4641C79.2947 62.7805 80.5482 61.334 81.3793 61.1167C81.8012 61.0072 82.1118 61.1249 82.3048 61.4704C82.5075 61.8406 82.493 62.5608 82.2481 63.6261C82.1864 63.8407 82.0894 64.176 81.9568 64.6322L79.1381 71.2069C77.862 74.1901 77.1428 76.0896 76.9868 76.9046C76.8719 77.4945 76.868 78.1487 76.9689 78.8678L82.8889 68.5514C84.3782 65.9695 85.3527 64.3044 85.8134 63.5625C86.5944 62.3286 87.2483 61.6409 87.7632 61.5073C88.0613 61.4323 88.2945 61.5464 88.4627 61.8496C88.6052 62.1041 88.6479 62.429 88.5924 62.837C88.5674 63.086 88.496 63.373 88.3712 63.6923C88.2147 64.1126 88.0093 64.6488 87.7684 65.3058C86.1663 70.1537 85.6048 73.4968 86.0972 75.3399C86.3759 76.3869 86.9258 76.8121 87.7381 76.5971C88.8177 76.3173 90.2113 74.912 91.8335 71.9257C91.941 71.7185 92.1973 71.325 92.6689 71.203C92.8486 71.1553 92.9712 71.1599 93.0372 71.2231C93.0477 71.2542 93.0262 71.3344 92.9852 71.4624C92.3744 72.6238 91.6031 73.7853 90.666 74.9539C89.4722 76.4644 88.4065 77.338 87.4633 77.5818C86.3963 77.8601 85.5824 77.5252 85.0278 76.5764C84.9118 76.3769 84.8214 76.1289 84.7379 75.8349C84.4088 74.5998 84.5263 72.8574 85.0832 70.6022C85.272 69.8415 85.4813 69.0912 85.7042 68.3458C86.0047 67.3126 86.484 65.7853 87.1486 63.763C87.2207 63.5795 87.255 63.3035 87.246 62.9421L86.833 63.6071Z" fill="#42A4EB"/>
<path d="M100.8 70.2005C100.907 70.0846 101.111 69.9825 101.421 69.9063C101.644 69.8471 101.791 69.8422 101.867 69.8845C101.937 69.9276 101.893 70.036 101.731 70.2103C100.309 71.7225 99.2295 72.9099 98.4912 73.7725C97.76 74.6406 97.183 75.1228 96.7806 75.2295C96.2041 75.3766 95.8426 75.1627 95.6899 74.5884C95.5867 74.195 95.6202 73.624 95.7904 72.8753C94.1283 74.8935 92.8972 76.0025 92.0978 76.2088C91.534 76.3544 91.1422 76.2021 90.9154 75.7464C90.6055 75.146 90.8365 73.9841 91.6021 72.2613C92.8876 69.3803 94.6552 67.4332 96.9184 66.4246C97.2393 66.2827 97.5139 66.1786 97.7367 66.1194C98.3565 65.9606 98.7109 66.0723 98.8187 66.4523C98.9584 66.9766 98.8043 67.4591 98.3509 67.907C98.2327 68.0309 98.0951 68.1055 97.9408 68.15C97.6747 68.2209 97.5111 68.1956 97.4502 68.0741C97.4036 67.9637 97.4697 67.8333 97.6358 67.6844C97.8092 67.4443 97.8518 67.233 97.7589 67.0638C97.6636 66.8756 97.4496 66.8564 97.117 67.0062C96.5892 67.2312 95.9201 67.7439 95.0969 68.5459C94.3255 69.3029 93.6237 70.1997 92.9862 71.2433C92.292 72.3904 91.8659 73.4342 91.7154 74.3803C91.6517 74.8196 91.6595 75.1215 91.7317 75.2803C91.7926 75.4018 91.9065 75.4395 92.0798 75.3928C92.557 75.2706 93.3221 74.611 94.3679 73.4084C95.4208 72.2113 96.2795 70.9992 96.9583 69.783C97.0837 69.5681 97.2057 69.3278 97.3236 69.0559C97.4759 68.8506 97.7564 68.6942 98.1651 68.5867C98.3203 68.5486 98.4182 68.5625 98.4644 68.6213C98.48 68.6903 98.4702 68.7624 98.4282 68.8319C97.7911 69.927 97.3387 70.8194 97.0764 71.5019C96.6941 72.4889 96.6621 73.3625 96.9678 74.1244C97.4482 73.6861 98.146 73.0025 99.0495 72.0812L100.8 70.2005Z" fill="#42A4EB"/>
<path d="M108.527 64.2984C108.68 64.5878 108.645 64.9513 108.415 65.3896C107.909 65.9127 107.479 66.3367 107.12 66.6687C107.022 66.751 106.89 66.8183 106.724 66.864C106.446 66.9361 106.271 66.9187 106.193 66.819C106.201 66.7283 106.415 66.465 106.83 66.0236C106.864 65.9875 106.914 65.9301 106.975 65.8649C107.037 65.7997 107.082 65.7495 107.104 65.7275C107.361 65.3437 107.458 65.0625 107.396 64.884C107.325 64.7834 107.162 64.7645 106.909 64.8273C106.797 64.8536 106.724 64.8816 106.682 64.9059C105.477 65.2182 104.196 66.4634 102.841 68.6477C102.013 69.9731 101.641 71.0316 101.72 71.824C101.706 72.0054 101.704 72.134 101.714 72.2098C101.704 72.3328 101.739 72.4505 101.83 72.5613C101.903 72.7258 102.05 72.7722 102.273 72.7196C102.892 72.5615 103.619 71.922 104.475 70.7987C104.667 70.5574 104.872 70.2696 105.097 69.9409C106.016 68.6239 106.844 67.8696 107.586 67.6774C107.92 67.5922 108.154 67.6667 108.274 67.9023C108.393 68.1253 108.345 68.6316 108.115 69.4099C108.067 69.5761 107.942 69.9376 107.735 70.5015L107.672 70.6053L107.233 71.7298C108.002 71.1173 110.195 68.0619 110.912 66.8591C111.525 65.8356 111.258 67.3048 111.282 67.3854C111.296 67.4415 110.966 68.3858 110.945 68.4654C110.928 68.6791 108.326 71.585 108.154 71.7341L107.467 72.343C107.324 72.4694 107.075 72.7175 106.72 73.0748C105.168 77.1563 103.88 80.2821 102.855 82.4396C101.408 85.4755 100.205 87.1155 99.2407 87.3666C98.876 87.4619 98.6155 87.3779 98.4529 87.1152C98.2853 86.8147 98.2647 86.2718 98.3974 85.4859C99.1203 81.3762 101.608 77.2138 105.866 73.0045C106.012 72.6534 106.175 72.1974 106.351 71.6373L106.627 70.8213C106.741 70.474 106.929 69.9637 107.177 69.2793C107.251 69.0651 107.262 68.9034 107.204 68.8014C107.177 68.7468 107.13 68.7269 107.075 68.7463C106.988 68.7696 106.868 68.874 106.714 69.0657C106.435 69.4202 106.026 69.9571 105.481 70.6709C104.331 72.1249 103.189 73.071 102.071 73.5138C101.431 73.7515 101.006 73.6809 100.803 73.3012C100.718 73.1447 100.662 72.8628 100.647 72.4604C100.638 72.2497 100.65 71.9981 100.694 71.7041C100.839 70.5254 101.421 69.2233 102.43 67.8057C103.617 66.1483 104.912 65.0104 106.314 64.3922C106.647 64.2494 106.933 64.1442 107.175 64.083C107.341 64.0372 107.46 64.0165 107.536 64.0137C107.816 63.9992 107.995 64.0032 108.073 64.013C108.295 64.0441 108.442 64.1418 108.527 64.2984ZM102.984 80.2747C103.568 78.889 104.335 76.9938 105.277 74.5898C103.957 76.0707 102.838 77.6171 101.918 79.2229C100.869 81.0561 100.168 82.4815 99.8086 83.4872C99.6127 84.0369 99.4789 84.5727 99.4143 85.1002C99.3591 85.5046 99.3769 85.7847 99.4624 85.9477C99.5332 86.0482 99.628 86.0881 99.7388 86.0554C100.344 85.8926 101.433 83.9712 102.984 80.2747Z" fill="#42A4EB"/>
<path d="M130.352 63.8084C130.509 63.108 129.888 62.9645 129.678 63.6971C128.785 65.9007 128.012 66.3991 127.256 66.9727C127.236 66.7244 127.192 66.4919 127.138 66.2798C127.075 66.0432 126.987 65.8159 126.87 65.6051C126.408 64.7739 125.635 64.5008 124.558 64.779C124.435 64.8132 124.292 64.8497 124.137 64.8877C124.612 64.316 125.266 63.4013 126.099 62.1498C127.146 60.5769 127.67 59.5493 127.679 59.0854C127.681 58.8601 127.646 58.6908 127.585 58.5696C127.409 58.2566 127.033 58.1735 126.463 58.3195C125.244 58.6341 123.96 59.5286 122.6 61.0108C121.067 62.7839 120.282 64.5889 118.596 66.6569C117.395 68.1264 116.761 68.5117 116.281 68.949C115.969 68.1896 116.007 67.3171 116.389 66.3324C116.658 65.6507 117.103 64.7611 117.74 63.6684C117.782 63.599 117.792 63.5272 117.776 63.4583C117.729 63.3933 117.632 63.3857 117.477 63.4238C117.069 63.531 116.788 63.687 116.636 63.8919C116.512 64.164 116.391 64.4101 116.271 64.6174C115.593 65.8308 114.729 67.041 113.683 68.2346C112.631 69.4352 111.873 70.0926 111.396 70.2145C111.23 70.2604 111.116 70.2227 111.049 70.1023C110.976 69.9375 110.969 69.6427 111.032 69.2043C111.183 68.2604 111.609 67.219 112.302 66.0744C112.939 65.0331 113.64 64.1384 114.411 63.383C115.234 62.5829 115.903 62.0714 116.43 61.8469C116.763 61.7037 116.983 61.7221 117.071 61.9043C117.165 62.0794 117.121 62.284 116.948 62.5235C116.776 62.6729 116.716 62.8022 116.763 62.9123C116.824 63.0335 116.987 63.0588 117.253 62.988C117.408 62.95 117.545 62.8692 117.663 62.7456C118.11 62.2995 118.269 61.8109 118.13 61.2942C118.029 60.9143 117.668 60.8036 117.049 60.962C116.826 61.0211 116.551 61.1187 116.231 61.2666C113.97 62.2729 112.197 64.2164 110.919 67.0902C110.154 68.8091 109.923 69.9684 110.233 70.5673C110.46 71.0221 110.851 71.174 111.414 71.0287C112.213 70.8229 113.443 69.7163 115.104 67.7027C114.928 68.4504 114.894 69.0202 115.004 69.4119C115.156 69.9849 115.524 70.1976 116.093 70.0516C116.502 69.9443 117.072 69.464 117.803 68.5978C120.773 65.063 120.923 64.0164 122.865 61.7052C123.783 60.6107 124.697 59.8702 125.649 59.5173C126.113 59.3518 126.389 59.357 126.482 59.5258C126.601 59.7492 126.283 60.4884 125.526 61.737C124.238 63.8598 122.975 65.446 121.743 66.4886C121.558 66.6395 121.455 66.8256 121.42 67.0483C121.394 67.2829 121.475 67.3695 121.674 67.3198C121.73 67.3066 121.801 67.2658 121.888 67.1974C122.236 66.924 122.591 66.656 122.952 66.381C123.368 66.0928 123.765 65.897 124.143 65.7999C124.966 65.5847 125.534 65.7667 125.839 66.334C126.027 66.6905 126.152 67.1962 126.217 67.8375C123.493 70.134 121.316 72.9879 119.679 76.3936C118.837 78.1603 118.4 79.5503 118.365 80.5508C118.359 80.6994 118.367 80.8077 118.381 80.8639C118.385 80.9406 118.414 81.0142 118.463 81.0919C118.606 81.3573 118.898 81.4314 119.332 81.3211C120.465 81.0298 121.772 79.8303 123.243 77.7368C124.305 76.2263 125.186 74.6605 125.893 73.0323C126.761 71.0309 127.222 69.2846 127.274 67.7933C129.879 65.9934 130.025 65.0629 130.056 65.0077C130.209 64.7128 130.331 63.8945 130.352 63.8084ZM126.166 69.1936C126.021 70.664 125.556 72.1795 124.775 73.7331C124.31 74.67 123.712 75.6617 122.994 76.7255C121.527 78.8957 120.465 80.0655 119.822 80.2333C119.667 80.2713 119.554 80.24 119.483 80.1393C119.41 79.9746 119.433 79.6182 119.551 79.0575C119.767 78.125 120.264 76.9013 121.036 75.3745C122.363 72.7713 124.078 70.539 126.18 68.6649C126.178 68.9415 126.175 69.1154 126.166 69.1936Z" fill="#42A4EB"/>
<path d="M136.268 57.9271C136.373 57.7476 137.415 57.3071 137.427 57.3506C137.441 57.4067 136.823 58.2518 136.194 59.4963C135.657 60.5564 134.976 61.653 134.061 62.7588C133.233 63.7576 132.73 64.3514 132.544 64.5471C131.766 65.3346 131.123 65.7911 130.604 65.9308C130.214 66.0293 129.916 65.9047 129.715 65.5501C129.572 65.285 129.529 64.9114 129.593 64.4285C129.674 63.8344 130.001 62.8254 130.574 61.4014C130.877 60.6457 131.272 59.7633 131.746 58.7495C131.829 58.5596 132.073 58.4147 132.481 58.3139C132.648 58.2681 132.758 58.2804 132.805 58.3454C132.832 58.4 132.821 58.4655 132.769 58.5552C132.359 59.3689 131.798 60.5987 131.088 62.2383C130.902 62.723 130.685 63.4491 130.435 64.4166C130.387 64.7306 130.396 64.9414 130.467 65.042C130.548 65.1734 130.669 65.2166 130.836 65.1708C130.935 65.146 131.001 65.1124 131.034 65.0762C130.991 65.0878 131.069 65.0464 131.267 64.9454C132.526 64.0228 134.677 60.5527 136.268 57.9271ZM134.063 54.5017C134.107 54.5477 134.032 54.7558 133.851 55.1244C133.777 55.2938 133.66 55.5199 133.493 55.8033C133.374 55.9717 133.204 56.0886 132.983 56.1602C132.775 56.2303 132.626 56.2162 132.524 56.1194C132.522 56.1067 132.517 56.0688 132.516 56.0112C132.59 55.7968 132.734 55.484 132.935 55.0681C133.17 54.7187 133.457 54.5171 133.783 54.4649C133.927 54.4411 134.018 54.4557 134.063 54.5017Z" fill="#42A4EB"/>
<path d="M142.421 62.4292C141.975 62.786 141.575 63.0083 141.21 63.104C140.875 63.1896 140.628 63.1101 140.473 62.8647C140.417 62.7749 140.397 62.6742 140.414 62.5627C140.39 62.4754 140.396 62.3265 140.424 62.1041C140.465 61.9253 140.519 61.6547 140.586 61.2922C140.655 60.9876 141.138 59.5507 142.04 56.9744C140.53 58.832 139.182 60.8503 137.999 63.0483C137.479 64.013 137.009 64.5273 136.588 64.5911C136.375 64.6297 136.291 64.524 136.347 64.2661C136.378 64.1656 136.409 64.0588 136.438 63.9394C136.467 63.8199 136.526 63.6325 136.627 63.3819L136.928 62.6498C137.176 62.0593 137.55 60.8159 138.062 58.9182C138.175 58.5116 138.343 57.8922 138.554 57.0679C138.593 56.8764 138.631 56.6271 138.666 56.3136C138.686 56.1695 138.696 56.0523 138.681 55.9446C138.193 56.416 137.465 57.2126 136.996 58.0294C136.867 58.2126 136.84 57.9646 136.496 58.0256C136.352 58.0495 135.849 59.2828 135.81 59.2359C135.778 59.1819 136.299 58.3265 136.312 57.8418C137.381 56.0892 138.309 55.3584 138.997 55.1785C139.35 55.0906 139.583 55.1527 139.703 55.3829C139.797 55.5584 139.785 56.0494 139.674 56.8615C139.635 57.0981 139.47 57.6914 139.185 58.6405C139.081 58.9687 138.914 59.4978 138.689 60.2207L138.597 60.5411C139.577 58.986 140.47 57.7442 141.282 56.8149C141.443 56.6216 141.679 56.3288 141.992 55.9303C142.273 55.587 142.578 55.3698 142.9 55.2857C143.179 55.2133 143.342 55.2386 143.39 55.3616C143.463 55.4752 143.43 55.7562 143.278 56.2062C143.311 56.215 143.282 56.2894 143.205 56.4276C142.79 57.5599 142.216 59.2784 141.483 61.583C141.487 61.6599 141.485 61.7438 141.484 61.8341C141.475 61.9125 141.49 61.9751 141.535 62.0276C141.608 62.1412 141.739 62.1639 141.909 62.0918C142.606 61.7885 143.643 60.6709 145.015 58.7335C145.263 58.3814 145.504 58.0237 145.738 57.6604C145.824 57.5341 146.007 57.4153 146.294 57.3097C146.428 57.2612 146.505 57.2584 146.516 57.2956C146.53 57.3519 146.508 57.4255 146.443 57.5171C145.791 58.5493 145.188 59.4146 144.64 60.1123C143.901 61.0712 143.164 61.8433 142.421 62.4292Z" fill="#42A4EB"/>
<path d="M154.593 53.7709C154.708 53.5768 154.932 53.4338 155.267 53.3483C155.378 53.3219 155.45 53.3326 155.477 53.3873C155.499 53.4554 155.483 53.5281 155.441 53.5975C154.922 54.516 154.295 55.4412 153.552 56.3673L151.447 58.9962C150.952 59.6094 150.439 60.2376 149.911 60.8871C149.101 61.7892 148.313 62.3671 147.547 62.6271C146.708 62.9152 146.16 62.7948 145.897 62.2604C145.578 61.6364 145.702 60.83 146.262 59.8358C146.664 59.1438 147.19 58.4753 147.859 57.8154C147.392 57.9683 146.931 58.0177 146.483 57.969C146.178 57.9415 145.964 57.8258 145.847 57.6148C145.679 57.3135 145.81 56.8022 146.247 56.0867C146.908 55.0288 148.021 54.0062 149.583 53.0323C150.316 52.5704 150.992 52.257 151.621 52.0779C152.233 51.9074 152.593 51.9154 152.689 52.116C152.799 52.3601 152.685 52.7085 152.34 53.1555C151.898 53.7366 151.514 54.0726 151.191 54.1503C150.98 54.2015 150.856 54.1843 150.817 54.0861C150.758 53.9774 150.847 53.8251 151.075 53.611C151.53 53.1764 151.741 52.9321 151.709 52.8845C151.687 52.8163 151.584 52.8095 151.394 52.8775C150.832 53.0806 150.161 53.4771 149.372 54.055C147.427 55.4742 146.606 56.4807 146.896 57.0698C146.955 57.1784 147.057 57.224 147.203 57.2191C147.459 57.2139 147.824 57.1183 148.3 56.9385C148.885 56.7133 149.356 56.4955 149.717 56.278C149.772 56.2521 149.851 56.2232 149.962 56.1905C150.086 56.1562 150.184 56.1765 150.246 56.2527C150.316 56.3986 150.174 56.6345 149.825 56.947C149.566 57.1649 149.324 57.3743 149.095 57.5758C148.865 57.7772 148.535 58.1389 148.104 58.6543C147.165 59.7845 146.722 60.7002 146.769 61.3958C146.883 61.8195 147.097 61.9866 147.419 61.9026C148.187 61.7068 149.493 60.4936 151.319 58.2717C152.749 56.5354 153.837 55.0332 154.593 53.7709Z" fill="#42A4EB"/>
<path d="M141.515 24.512C141.47 23.1735 140.993 22.124 140.068 21.3061C137.598 19.1053 134.852 17.4052 131.78 16.3081C130.917 16.0025 130.083 16.1241 129.266 16.4292C129.042 16.5153 128.864 16.7296 128.663 16.8871C128.696 16.9722 128.729 17.0574 128.761 17.1353C129.055 17.0855 129.345 17.0138 129.642 16.9859C130.165 16.9459 130.724 16.7977 131.207 16.9332C133.849 17.6508 136.166 19.0901 138.327 20.8005C138.991 21.3302 139.631 21.9372 140.165 22.6087C141.102 23.7816 141.073 24.7281 140.026 25.7139C139.5 26.2072 138.807 26.5793 138.122 26.8019C136.636 27.2832 135.119 27.694 133.583 28.0179C131.734 28.4087 129.862 28.7354 127.986 28.9736C126.264 29.1934 124.526 29.289 122.796 29.391C120.867 29.5092 118.955 29.529 117.144 28.5046C116.022 27.8734 114.823 27.4666 113.579 28.2013C114.048 27.9153 114.517 27.6293 115.018 27.3172C114.886 27.1918 114.84 27.1156 114.781 27.1004C114.156 26.967 112.814 27.728 112.582 28.3348C112.423 28.7473 112.686 29.2134 113.135 29.2045C113.42 29.1929 113.69 29.0271 113.971 28.9343C114.382 28.8036 114.855 28.4949 115.199 28.6098C116.44 29.0116 117.635 29.5524 118.8 30.0226C118.075 30.1089 117.281 30.1068 116.545 30.3207C115.788 30.537 115.09 30.5013 114.369 30.2456C113.949 30.0952 113.539 29.8692 113.108 29.7943C112.5 29.6885 111.836 29.5373 111.269 29.6791C108.819 30.2751 106.418 31.0732 103.953 31.6117C101.224 32.2038 98.4521 32.6378 95.6931 33.0627C94.5795 33.2324 93.6063 32.6948 92.7491 31.9579C92.1837 31.4757 92.0195 30.8419 92.4219 30.2223C92.9656 29.378 93.4763 28.4485 94.2203 27.8179C97.2862 25.2181 100.385 22.6514 103.565 20.2088C104.725 19.3209 106.085 18.5947 107.468 18.1478C108.86 17.7075 110.393 17.5176 111.662 18.8737C112.172 19.4218 112.987 19.2654 113.291 18.6055C113.045 18.5829 112.817 18.5357 112.603 18.5389C111.905 18.5552 111.544 18.1081 111.826 17.4434C111.994 17.0448 112.315 16.7171 112.598 16.379C112.771 16.1802 112.993 16.0275 113.231 15.8284C112.396 15.4675 111.76 15.9961 111.129 17.4151C109.979 17.3664 108.861 17.1876 107.777 17.3092C106.002 17.5056 104.505 18.4858 103.133 19.5475C100.316 21.7167 97.5615 23.975 94.8151 26.2399C93.4841 27.3412 92.2443 28.5357 91.5579 30.2286C91.4831 30.4157 91.1352 30.5388 90.897 30.5746C88.4416 30.9188 85.9883 31.2777 83.5251 31.5635C78.2258 32.1794 85.9563 31.1998 80.6531 31.7866C80.1958 31.841 79.7415 31.9173 79.2933 31.9856L141.515 24.512ZM134.5 23.9067C134.365 23.1208 133.88 23.3346 133.484 23.4188C129.183 24.3391 124.883 25.2594 120.584 26.1943C119.73 26.3776 118.995 26.1756 118.28 25.6444C116.867 24.6024 115.344 23.9076 113.572 24.0739C112.775 24.1539 112.077 24.4375 111.612 25.1239C111.51 25.2697 111.614 25.5618 111.623 25.7835C111.577 26.0785 111.333 26.3377 111.15 26.6268C111.092 26.7228 111.176 26.9207 111.196 27.0742C111.323 27.0591 111.5 27.0975 111.568 27.0225C112.29 26.2238 113.156 25.7049 114.238 25.5687C113.865 24.9746 113.727 24.9539 112.532 25.2669C113.217 24.6731 114.484 24.4776 115.598 24.9464C116.432 25.3001 117.241 25.783 117.997 26.3018C118.682 26.7697 119.378 26.9987 120.175 26.9187C120.775 26.8621 121.389 26.8559 121.972 26.7271C124.891 26.1123 127.807 25.4756 130.721 24.8243C131.971 24.5493 133.22 24.2224 134.5 23.9067ZM115.648 10.6477C115.698 9.42417 116.683 8.35651 117.878 7.99888C119.342 7.56476 120.848 7.54882 122.355 7.64418C123.423 7.71754 124.488 7.93226 125.363 8.69678C125.914 9.17328 125.937 9.55661 125.45 10.0823C125.369 10.1663 125.24 10.2187 125.204 10.3196C125.145 10.4676 125.147 10.6382 125.126 10.804C125.294 10.8286 125.493 10.9237 125.627 10.8631C126.463 10.4889 126.69 9.25905 126.023 8.60345C125.685 8.27242 125.301 7.96916 124.888 7.76593C122.561 6.62479 120.182 6.74456 117.805 7.34685C116.629 7.64267 115.725 8.35911 115.167 9.46505C114.941 9.90776 114.792 10.3933 115.214 10.8702C115.602 11.314 116.036 11.2401 116.496 11.1036C117.355 10.8455 118.204 10.5216 119.081 10.343C120.702 10.0164 122.311 10.2852 123.89 10.81C124.115 10.8872 124.37 10.8717 124.61 10.9025C124.634 10.8106 124.656 10.7114 124.679 10.6196C124.364 10.4566 124.066 10.2546 123.736 10.1453C121.478 9.40437 119.242 9.41803 117.032 10.2009C116.603 10.3632 116.169 10.4818 115.648 10.6477ZM124.927 19.3366C124.836 19.2955 124.743 19.247 124.652 19.2059C124.458 19.4666 124.25 19.7216 124.079 19.9943C123.107 21.5802 121.851 22.8137 120.138 23.5225C118.501 24.2074 116.567 23.9698 115.624 22.9163C114.826 22.0313 114.2 21.0514 113.972 19.8386C113.94 19.6495 113.684 19.5017 113.533 19.3341C113.448 19.5521 113.246 19.8063 113.299 19.9856C114.052 22.5467 115.486 24.9078 118.642 24.5692C119.368 24.4903 120.106 24.2911 120.758 23.9833C122.473 23.1852 123.878 22.0007 124.708 20.2017C124.829 19.9348 124.858 19.6195 124.927 19.3366ZM119.056 13.7021C118.773 13.409 118.531 12.9924 118.19 12.8474C117.674 12.6266 117.177 12.864 116.872 13.3606C116.667 13.6968 116.473 14.0541 116.337 14.4266C116.063 15.2018 116.216 15.7552 116.709 16.0158C117.216 16.2821 117.705 16.0903 118.165 15.4193C118.374 15.1123 118.551 14.7867 118.745 14.4741C118.8 14.5121 118.855 14.5501 118.911 14.588C118.758 14.8363 118.561 15.0677 118.469 15.3386C118.371 15.6176 118.229 16.1022 118.35 16.2066C118.684 16.5084 119.101 16.4216 119.478 16.0352C119.26 15.9052 119.089 15.8067 118.873 15.684C119.197 15.2296 119.498 14.8077 119.743 14.4518C120.011 15.0065 120.116 15.6251 120.44 15.8019C121.027 16.1255 121.56 15.6833 121.924 15.202C122.154 14.8925 122.278 14.4842 122.383 14.1004C122.513 13.6321 122.339 13.2444 121.907 13.0063C121.474 12.7682 121.021 12.7999 120.783 13.2069C120.338 13.9875 119.676 13.9549 119.056 13.7021ZM103.23 26.8865C103.228 26.9239 103.234 26.9677 103.231 27.0051C103.09 27.0146 102.953 27.0085 102.813 27.0326C101.76 27.1728 100.707 27.313 99.6576 27.4825C99.5249 27.5057 99.4319 27.7173 99.3131 27.8428C99.4715 27.9576 99.6267 28.1544 99.7845 28.1579C100.051 28.1708 100.323 28.0195 100.594 28.0096C103.689 27.8564 106.781 27.726 109.876 27.5655C110.182 27.5514 110.47 27.3611 110.763 27.252C110.473 27.1158 110.181 26.8609 109.888 26.8587C107.67 26.8406 105.451 26.8745 103.23 26.8865ZM126.046 15.7656C126.063 15.8379 126.087 15.9093 126.104 15.9815C126.236 16.0103 126.364 16.0545 126.495 16.076C127.143 16.2142 127.341 16.5173 127.104 17.1469C126.995 17.4495 126.844 17.809 126.602 17.9789C126.146 18.3079 125.617 18.5193 125.036 18.8187C125.165 18.9295 125.299 19.1289 125.453 19.1552C126.612 19.3736 128.235 17.4727 127.79 16.3451C127.649 15.9906 127.129 15.7407 126.732 15.5504C126.565 15.4811 126.278 15.686 126.046 15.7656ZM113.191 14.8456C113.267 14.8218 113.342 14.798 113.425 14.7733C113.394 13.5371 113.567 12.3878 114.478 11.5073C114.541 11.4477 114.479 11.2546 114.476 11.1214C114.287 11.1513 114.032 11.1149 113.925 11.2241C113.146 12.0221 112.69 12.9823 112.856 14.1653C112.882 14.4073 113.075 14.6218 113.191 14.8456ZM126.575 11.0027C126.722 11.557 126.956 12.0785 126.963 12.6049C126.969 13.1759 126.753 13.751 126.637 14.3217C127.258 14.3666 127.658 13.621 127.7 12.4503C127.729 11.5559 127.285 11.0148 126.575 11.0027ZM125.023 11.5736C124.967 11.5283 124.91 11.4831 124.854 11.4378C124.638 11.6863 124.317 11.9027 124.227 12.1955C124.148 12.4573 124.238 12.907 124.419 13.0859C124.855 13.5092 125.05 13.9463 125.016 14.5443C125.008 14.6938 125.216 14.862 125.323 15.0201C125.446 14.8718 125.694 14.6938 125.664 14.5786C125.528 14.0454 125.448 13.4015 125.105 13.0339C124.736 12.625 124.632 12.3849 124.932 11.9631C125.012 11.8645 124.997 11.7029 125.023 11.5736ZM115.004 26.5245C114.875 26.369 114.827 26.2782 114.758 26.2418C113.907 25.816 112.151 26.5225 111.831 27.4367C111.791 27.5603 111.879 27.7354 111.907 27.888C112.065 27.8395 112.239 27.8113 112.379 27.7353C112.911 27.4344 113.422 27.0914 113.971 26.8182C114.266 26.6717 114.603 26.6315 115.004 26.5245ZM117.695 18.6085C117.627 18.6908 117.567 18.7722 117.499 18.8545C117.669 19.0497 117.805 19.3157 118.013 19.4319C118.646 19.7797 119.237 19.5461 119.766 19.1787C119.91 19.0799 119.927 18.7809 120 18.5792C119.8 18.5807 119.548 18.5142 119.403 18.6057C118.844 18.9691 118.31 19.2481 117.695 18.6085ZM115.256 12.7213C114.583 12.9203 114.09 14.0334 114.397 14.5091C114.46 14.6055 114.62 14.6829 114.743 14.6906C114.808 14.6977 114.924 14.5503 114.946 14.4511C115.058 13.9032 115.148 13.3505 115.256 12.7213Z" fill="white"/>
<path d="M79.1783 32.2858C79.4933 32.2223 79.8136 32.1417 80.1322 32.111C81.8868 31.9292 83.6529 31.7874 85.4056 31.5892C89.8158 31.0904 81.1485 32.1769 85.5559 31.6536C87.2442 31.4551 88.9254 31.2574 90.6029 30.9609C91.0662 30.8794 91.3011 30.9333 91.5866 31.3784C92.2779 32.4524 93.1737 33.3689 94.3357 33.4583C95.9012 33.5728 97.5294 33.6713 99.0443 33.3285C102.674 32.5032 106.286 31.5146 109.852 30.3743C111.297 29.916 112.57 29.9752 113.894 30.6903C114.83 31.1882 115.782 31.2618 116.733 30.7978C117.568 30.3893 118.411 30.5095 119.264 30.7113C119.609 30.7931 119.954 30.8668 120.297 30.9323C120.757 31.0166 121.1 30.8836 121.313 30.3445C121.397 30.1355 121.65 29.9058 121.849 29.8898C123.424 29.7631 125.008 29.7263 126.581 29.5833C130.386 29.2414 134.154 28.6309 137.805 27.3479C139.113 26.8814 140.38 26.3042 141.223 24.9347C141.338 24.7467 141.659 24.6743 141.892 24.6458C143.46 24.4538 145.032 24.3108 146.599 24.1107C149.02 23.8059 151.433 23.4358 153.857 23.1555" fill="white"/>
<path d="M147.559 24.0544C147.492 24.2425 147.46 24.5195 147.386 24.7238C145.262 24.9753 148.693 24.4039 146.57 24.663C145.007 24.8564 143.437 24.998 141.873 25.184C141.64 25.2116 141.32 25.2798 141.207 25.4511C140.377 26.7 139.117 27.2407 137.813 27.6663C134.186 28.8644 130.426 29.4393 126.621 29.779C125.051 29.9206 123.469 29.966 121.897 30.0928C121.706 30.108 121.447 30.3191 121.365 30.5093C121.158 31 120.824 31.1299 120.356 31.0503C120.012 30.9934 119.667 30.9292 119.322 30.8576C118.467 30.6735 117.618 30.5791 116.794 30.9551C115.856 31.3825 114.896 31.3237 113.958 30.879C112.621 30.2411 111.356 30.1961 109.917 30.6228C106.364 31.6843 102.772 32.6076 99.1465 33.3845C97.6362 33.7069 96.0088 33.6298 94.4439 33.5378C93.2823 33.4654 92.3793 32.6407 91.679 31.6715C91.3899 31.2699 91.1547 31.2227 90.6927 31.3002C89.0257 31.5736 87.3409 31.7664 85.657 31.9666C85.4369 32.2638 89.9075 31.4236 85.5064 31.9094C83.7502 32.1032 88.0866 31.5199 86.3355 31.698C86.0175 31.7283 85.6992 31.8113 85.3841 31.8638C85.3519 31.6195 85.3197 31.3753 85.2885 31.1385C85.7445 31.0692 86.1995 30.9925 86.6504 30.9389C91.9614 30.3525 82.915 31.5034 83.434 31.4417C85.9008 31.1559 88.3578 30.796 90.8168 30.451C91.0554 30.4151 91.404 30.291 91.4792 30.1016C92.1692 28.3883 93.4186 27.1723 94.7469 26.0671C97.5006 23.7776 100.262 21.4947 103.086 19.3022C104.468 18.2282 105.969 17.2378 107.74 17.0423C108.826 16.9207 109.945 17.1034 111.096 17.1544C111.737 15.7175 112.368 15.184 113.203 15.5507C112.966 15.7593 112.742 15.9062 112.568 16.1073C112.284 16.4493 111.963 16.7807 111.794 17.1841C111.511 17.8568 111.871 18.3101 112.57 18.2946C112.792 18.2908 113.012 18.3323 113.259 18.363C112.961 19.03 112.144 19.1872 111.627 18.6322C110.365 17.2563 108.823 17.4398 107.429 17.8911C106.042 18.3342 104.679 19.0676 103.518 19.9725C100.33 22.4414 97.2158 25.0368 94.1489 27.6642C93.41 28.3009 92.8971 29.2414 92.3444 30.0964C91.9404 30.7233 92.1108 31.3646 92.6692 31.8545C93.5262 32.602 94.5008 33.1551 95.6151 32.9775C98.3844 32.543 101.155 32.1158 103.888 31.5201C106.357 30.9785 108.764 30.1811 111.217 29.5737C111.785 29.431 112.449 29.585 113.057 29.6931C113.489 29.7695 113.892 29.9998 114.32 30.1519C115.041 30.4119 115.747 30.4482 116.498 30.2311C117.237 30.023 118.037 30.018 118.756 29.9325C117.591 29.4547 116.394 28.8979 115.153 28.4966C114.802 28.3806 114.336 28.6991 113.923 28.8234C113.641 28.9096 113.363 29.0854 113.086 29.0958C112.644 29.1108 112.38 28.631 112.533 28.2144C112.767 27.6002 114.111 26.8315 114.737 26.9675C114.796 26.983 114.842 27.0602 114.974 27.1875C114.477 27.4945 114 27.7843 113.531 28.0806C114.779 27.3384 115.985 27.7512 117.1 28.3929C118.912 29.4329 120.827 29.4156 122.758 29.2987C124.491 29.1979 126.232 29.1037 127.956 28.8836C129.835 28.6451 131.709 28.317 133.561 27.9239C135.093 27.599 136.612 27.1852 138.108 26.6991C138.794 26.4747 139.496 26.0981 140.017 25.6001C141.066 24.6033 141.097 23.6449 140.16 22.4558C139.627 21.7751 138.995 21.1586 138.323 20.6221C136.162 18.887 133.845 17.4335 131.201 16.6956C130.71 16.5584 130.157 16.7069 129.633 16.7467C129.335 16.7671 129.045 16.8467 128.751 16.8966C128.718 16.8103 128.685 16.724 128.654 16.6451C128.854 16.4859 129.033 16.2692 129.258 16.1824C130.069 15.8754 130.911 15.7453 131.775 16.0634C134.849 17.1788 137.597 18.9119 140.065 21.1366C140.983 21.9671 141.467 23.0297 141.51 24.3852" fill="#002839"/>
<path d="M134.511 23.6019C133.228 23.924 131.974 24.2579 130.713 24.5388C127.79 25.2023 124.865 25.8507 121.937 26.4764C121.351 26.6 120.736 26.6042 120.135 26.668C119.336 26.7479 118.64 26.5081 117.956 26.0209C117.193 25.4815 116.392 24.9775 115.558 24.6081C114.442 24.1107 113.179 24.3151 112.483 24.9283C113.682 24.6087 113.821 24.6306 114.192 25.2473C113.106 25.3768 112.235 25.911 111.51 26.743C111.441 26.8204 111.264 26.78 111.137 26.7951C111.117 26.6361 111.027 26.4316 111.093 26.3315C111.284 26.032 111.53 25.7645 111.57 25.46C111.562 25.2303 111.467 24.9265 111.562 24.7768C112.031 24.0676 112.725 23.7774 113.531 23.6967C115.306 23.5236 116.83 24.2489 118.242 25.3411C118.956 25.8939 119.692 26.106 120.549 25.9193C124.861 24.9673 129.174 24.0305 133.488 23.0936C133.899 23.0062 134.387 22.7866 134.511 23.6019Z" fill="#002839"/>
<path d="M115.783 10.7756C116.304 10.6172 116.744 10.4907 117.167 10.344C119.376 9.56234 121.611 9.54815 123.869 10.2869C124.198 10.3958 124.497 10.5973 124.812 10.7599C124.788 10.8515 124.766 10.9505 124.743 11.0422C124.496 11.0123 124.247 11.0198 124.016 10.9509C122.437 10.4277 120.83 10.1671 119.209 10.4862C118.333 10.6646 117.483 10.988 116.625 11.2458C116.165 11.3821 115.732 11.4559 115.343 11.0132C114.921 10.5374 115.07 10.0529 115.296 9.61111C115.861 8.50663 116.757 7.79237 117.932 7.49691C120.315 6.89452 122.693 6.77442 125.012 7.9133C125.425 8.11598 125.816 8.41764 126.147 8.7487C126.814 9.40269 126.588 10.6299 125.752 11.0035C125.618 11.064 125.419 10.9691 125.251 10.9446C125.272 10.7792 125.27 10.609 125.329 10.4612C125.365 10.3606 125.501 10.3074 125.575 10.2244C126.054 9.70062 126.031 9.31814 125.488 8.84199C124.613 8.07936 123.555 7.86455 122.481 7.79245C120.974 7.69768 119.469 7.71396 118.006 8.14749C116.808 8.48276 115.831 9.54748 115.783 10.7756Z" fill="#002839"/>
<path d="M124.922 19.1649C124.854 19.453 124.832 19.7579 124.711 20.0229C123.885 21.8091 122.483 22.986 120.771 23.7796C120.114 24.0865 119.377 24.2849 118.66 24.363C115.509 24.7018 114.075 22.3595 113.321 19.8184C113.268 19.6404 113.469 19.388 113.553 19.1715C113.704 19.3377 113.953 19.485 113.993 19.6719C114.222 20.8754 114.847 21.8474 115.645 22.7251C116.594 23.769 118.518 24.004 120.152 23.3228C121.853 22.6114 123.113 21.3852 124.083 19.8176C124.252 19.5395 124.461 19.2935 124.654 19.0347C124.739 19.0762 124.83 19.1169 124.922 19.1649Z" fill="#002839"/>
<path d="M119.132 13.7169C119.75 13.9592 120.411 13.9906 120.861 13.2168C121.092 12.8218 121.55 12.7819 121.981 13.017C122.413 13.2521 122.587 13.6355 122.458 14.0991C122.353 14.479 122.223 14.8839 122.002 15.1896C121.646 15.6656 121.108 16.1046 120.522 15.785C120.198 15.6105 120.093 14.9985 119.825 14.4499C119.573 14.796 119.281 15.2129 118.959 15.6702C119.176 15.7986 119.346 15.8959 119.562 16.017C119.187 16.3998 118.778 16.4854 118.438 16.1879C118.324 16.084 118.458 15.6051 118.555 15.3289C118.654 15.06 118.843 14.8316 118.995 14.5857C118.94 14.5482 118.885 14.5107 118.83 14.4731C118.637 14.7827 118.46 15.1051 118.252 15.4091C117.795 16.0736 117.3 16.2649 116.801 16.0012C116.309 15.7438 116.155 15.1964 116.428 14.429C116.563 14.0602 116.756 13.7064 116.96 13.3735C117.263 12.8817 117.752 12.6471 118.274 12.8641C118.608 13.0152 118.843 13.4281 119.132 13.7169ZM117.049 15.6777C117.749 15.2708 118.156 14.7078 118.303 13.9628C118.338 13.797 118.214 13.5693 118.106 13.4059C118.07 13.3514 117.839 13.3862 117.733 13.443C117.079 13.7708 116.73 14.8118 117.049 15.6777ZM120.686 15.3172C121.367 15.2433 122.016 14.409 121.881 13.7931C121.788 13.378 121.551 13.2594 121.242 13.5534C120.743 14.0244 120.471 14.5859 120.686 15.3172Z" fill="#002839"/>
<path d="M103.143 26.7097C105.369 26.708 107.6 26.6824 109.83 26.7112C110.117 26.7158 110.415 26.9832 110.705 27.1273C110.411 27.2401 110.113 27.4388 109.814 27.4513C106.712 27.6043 103.613 27.7259 100.509 27.8713C100.231 27.8812 99.9642 28.0374 99.6975 28.0227C99.5394 28.0183 99.3849 27.8114 99.2267 27.6904C99.3395 27.5604 99.4408 27.3385 99.5739 27.3148C100.626 27.1425 101.683 27.0007 102.739 26.859C102.88 26.8421 103.016 26.8414 103.158 26.8322C103.146 26.7948 103.142 26.7565 103.143 26.7097Z" fill="#002839"/>
<path d="M126.111 15.6282C126.342 15.5497 126.633 15.3473 126.799 15.4223C127.193 15.6013 127.71 15.853 127.85 16.2007C128.288 17.3147 126.686 19.1748 125.536 18.9621C125.384 18.9366 125.257 18.7403 125.122 18.6325C125.697 18.3307 126.23 18.1287 126.675 17.8059C126.913 17.6317 127.057 17.2866 127.172 16.9886C127.399 16.3712 127.208 16.066 126.566 15.9385C126.434 15.9104 126.309 15.8744 126.177 15.8463C126.145 15.77 126.128 15.6991 126.111 15.6282Z" fill="black"/>
<path d="M113.277 14.9285C113.162 14.7096 112.971 14.4998 112.94 14.271C112.774 13.1136 113.225 12.1738 113.994 11.3924C114.099 11.2854 114.351 11.3209 114.538 11.2915C114.542 11.4219 114.603 11.6108 114.54 11.6691C113.648 12.5305 113.477 13.6551 113.502 14.8655C113.433 14.8809 113.352 14.9051 113.277 14.9285Z" fill="#002839"/>
<path d="M126.698 10.9897C127.391 11.0026 127.836 11.5305 127.806 12.4041C127.765 13.5548 127.362 14.2765 126.757 14.2315C126.878 13.6662 127.084 13.1125 127.079 12.5548C127.074 12.0478 126.842 11.5312 126.698 10.9897Z" fill="#002839"/>
<path d="M125.127 11.5762C125.101 11.7023 125.108 11.8537 125.043 11.9482C124.754 12.3658 124.849 12.601 125.212 12.9935C125.542 13.3535 125.626 13.9812 125.76 14.5017C125.788 14.6071 125.537 14.7884 125.423 14.9321C125.318 14.7778 125.112 14.6133 125.121 14.4674C125.155 13.8839 124.964 13.457 124.535 13.0433C124.356 12.8684 124.268 12.4223 124.348 12.174C124.436 11.8884 124.746 11.6785 124.967 11.4354C125.016 11.4876 125.071 11.5319 125.127 11.5762Z" fill="#002839"/>
<path d="M114.941 26.2798C114.541 26.3865 114.196 26.4203 113.909 26.5652C113.367 26.8364 112.857 27.1777 112.319 27.4779C112.172 27.5544 112.005 27.5818 111.847 27.6301C111.819 27.4784 111.731 27.3044 111.772 27.1815C112.091 26.2726 113.844 25.5691 114.695 25.9918C114.772 26.0343 114.814 26.1326 114.941 26.2798Z" fill="#002839"/>
<path d="M117.726 18.5023C118.349 19.1374 118.882 18.8595 119.433 18.4984C119.578 18.4073 119.83 18.4733 120.029 18.4717C119.958 18.6797 119.94 18.9699 119.796 19.0683C119.274 19.4261 118.678 19.667 118.045 19.3213C117.836 19.2058 117.7 18.9412 117.531 18.7471C117.598 18.658 117.658 18.5769 117.726 18.5023Z" fill="#002839"/>
<path d="M115.324 12.8296C115.217 13.4383 115.13 13.9865 115.019 14.5229C114.997 14.62 114.889 14.7564 114.818 14.7575C114.697 14.7501 114.539 14.6816 114.476 14.5801C114.164 14.1156 114.659 13.0321 115.324 12.8296Z" fill="#002839"/>
<path d="M117.043 15.6872C116.735 14.8364 117.075 13.8067 117.722 13.4678C117.828 13.4116 118.056 13.3771 118.092 13.431C118.199 13.5929 118.323 13.8183 118.288 13.9824C118.143 14.7271 117.738 15.2845 117.043 15.6872Z" fill="white"/>
<path d="M120.7 15.2868C120.486 14.5624 120.757 14.0061 121.253 13.5395C121.56 13.2481 121.802 13.3576 121.888 13.7768C122.022 14.3868 121.378 15.2205 120.7 15.2868Z" fill="white"/>
<defs>
<clipPath id="clip0">
<rect width="170.51" height="58.3129" fill="white" transform="translate(2.48193 39.3406) rotate(-7.35351)"/>
</clipPath>
</defs>
</svg>
