<svg width="80" height="31" viewBox="0 0 80 31" fill="none" xmlns="http://www.w3.org/2000/svg">
<rect width="80" height="31" rx="10" fill="#6BAAE8"/>
<path d="M22.203 10.431L20.828 10.882C21.158 11.564 21.763 13.159 21.972 13.863L23.358 13.379C23.149 12.664 22.478 10.97 22.203 10.431ZM27.23 11.311L25.58 10.838C25.393 12.521 24.711 14.413 23.886 15.458C22.764 16.877 21.048 17.867 19.541 18.296L20.773 19.528C22.346 18.934 23.941 17.823 25.096 16.305C26.009 15.106 26.636 13.357 26.944 12.158C27.01 11.916 27.109 11.586 27.23 11.311ZM19.145 11.113L17.737 11.597C18.056 12.191 18.782 13.995 19.002 14.71L20.421 14.193C20.168 13.445 19.475 11.806 19.145 11.113ZM29.232 14.721L29.925 16.107C31.278 15.711 32.675 15.117 33.808 14.523V18.043C33.808 18.527 33.775 19.22 33.731 19.484H35.469C35.392 19.209 35.37 18.527 35.37 18.043V13.599C36.437 12.895 37.493 12.037 38.329 11.212L37.141 10.079C36.426 10.948 35.172 12.048 34.039 12.752C32.818 13.5 31.201 14.215 29.232 14.721ZM41.112 13.907V15.634C41.519 15.601 42.256 15.579 42.883 15.579H48.79C49.252 15.579 49.813 15.623 50.077 15.634V13.907C49.791 13.929 49.307 13.973 48.79 13.973H42.883C42.311 13.973 41.508 13.94 41.112 13.907ZM55.104 17.944C55.104 18.384 55.06 19.044 54.994 19.484H56.71C56.666 19.033 56.611 18.263 56.611 17.944V14.831C57.799 15.238 59.449 15.876 60.582 16.47L61.209 14.952C60.197 14.457 58.085 13.676 56.611 13.247V11.619C56.611 11.168 56.666 10.684 56.71 10.299H54.994C55.071 10.684 55.104 11.234 55.104 11.619V17.944Z" fill="white"/>
</svg>
