<svg width="80" height="31" viewBox="0 0 80 31" fill="none" xmlns="http://www.w3.org/2000/svg">
<rect width="80" height="31" rx="10" fill="#415893"/>
<path d="M26.399 10.288L25.596 11.498C26.322 11.905 27.466 12.653 28.082 13.082L28.907 11.861C28.335 11.465 27.125 10.684 26.399 10.288ZM24.353 18.098L25.178 19.55C26.157 19.374 27.73 18.824 28.852 18.186C30.656 17.152 32.207 15.755 33.23 14.237L32.383 12.741C31.503 14.314 29.974 15.821 28.104 16.866C26.905 17.526 25.585 17.889 24.353 18.098ZM24.705 12.796L23.902 14.017C24.639 14.402 25.783 15.15 26.41 15.579L27.213 14.347C26.652 13.951 25.442 13.192 24.705 12.796ZM36.717 13.038V14.424C36.959 14.402 37.355 14.38 37.586 14.38H39.302V17.922H37.058C36.783 17.922 36.442 17.889 36.156 17.856V19.297C36.453 19.253 36.794 19.242 37.058 19.242H43.141C43.328 19.242 43.735 19.253 43.977 19.297V17.856C43.746 17.878 43.438 17.922 43.141 17.922H40.743V14.38H42.624C42.877 14.38 43.207 14.402 43.482 14.424V13.038C43.218 13.071 42.888 13.093 42.624 13.093H37.586C37.344 13.093 36.959 13.082 36.717 13.038ZM56.605 11.553L55.736 10.739C55.527 10.805 54.922 10.838 54.614 10.838H48.685C48.223 10.838 47.761 10.794 47.343 10.728V12.257C47.86 12.213 48.223 12.18 48.685 12.18H54.416C54.13 12.719 53.272 13.687 52.392 14.226L53.536 15.139C54.614 14.369 55.659 12.983 56.176 12.125C56.275 11.96 56.484 11.696 56.605 11.553ZM52.117 13.038H50.522C50.577 13.39 50.599 13.687 50.599 14.028C50.599 15.832 50.335 16.998 48.938 17.966C48.531 18.263 48.135 18.45 47.783 18.571L49.07 19.616C52.062 18.01 52.117 15.766 52.117 13.038Z" fill="white"/>
</svg>
