<svg width="80" height="31" viewBox="0 0 80 31" fill="none" xmlns="http://www.w3.org/2000/svg">
<rect width="80" height="31" rx="10" fill="#3881CB"/>
<path d="M28.214 17.57C28.214 17.152 28.632 16.888 29.259 16.888C29.556 16.888 29.853 16.932 30.139 17.009C30.139 17.086 30.139 17.152 30.139 17.207C30.139 17.856 29.908 18.208 29.237 18.208C28.654 18.208 28.214 18.021 28.214 17.57ZM31.481 10.387H29.908C29.952 10.607 29.985 10.948 29.985 11.113C29.985 11.344 29.996 11.795 29.996 12.334C29.743 12.345 29.479 12.345 29.226 12.345C28.566 12.345 27.928 12.312 27.301 12.246V13.555C27.95 13.599 28.577 13.621 29.226 13.621C29.479 13.621 29.743 13.621 30.007 13.61C30.018 14.391 30.062 15.194 30.084 15.876C29.864 15.843 29.622 15.832 29.369 15.832C27.873 15.832 26.927 16.602 26.927 17.713C26.927 18.868 27.873 19.506 29.391 19.506C30.876 19.506 31.47 18.758 31.536 17.702C31.976 17.999 32.416 18.384 32.878 18.813L33.637 17.658C33.109 17.174 32.416 16.613 31.503 16.239C31.459 15.491 31.404 14.611 31.382 13.544C31.987 13.5 32.559 13.434 33.087 13.357V11.982C32.559 12.092 31.987 12.18 31.382 12.235C31.393 11.751 31.404 11.344 31.415 11.102C31.426 10.86 31.448 10.596 31.481 10.387ZM26.113 10.508L24.595 10.376C24.584 10.728 24.529 11.146 24.485 11.454C24.364 12.301 24.034 14.38 24.034 16.041C24.034 17.537 24.243 18.791 24.474 19.561L25.717 19.462C25.706 19.308 25.695 19.121 25.695 19.011C25.695 18.89 25.717 18.648 25.75 18.494C25.882 17.9 26.234 16.778 26.542 15.876L25.871 15.326C25.706 15.7 25.519 16.074 25.376 16.459C25.343 16.239 25.332 15.964 25.332 15.744C25.332 14.644 25.695 12.224 25.86 11.487C25.893 11.289 26.025 10.728 26.113 10.508ZM35.331 11.432L35.474 12.939C36.75 12.664 38.994 12.422 40.028 12.312C39.291 12.873 38.4 14.127 38.4 15.711C38.4 18.087 40.578 19.33 42.877 19.484L43.394 17.977C41.535 17.878 39.841 17.218 39.841 15.414C39.841 14.105 40.831 12.675 42.162 12.323C42.745 12.191 43.691 12.191 44.285 12.18L44.274 10.772C43.504 10.794 42.294 10.871 41.161 10.959C39.148 11.135 37.333 11.3 36.42 11.377C36.2 11.399 35.771 11.421 35.331 11.432ZM51.292 10.145L49.774 9.991C49.752 10.563 49.631 11.223 49.477 11.828C49.136 11.861 48.806 11.872 48.476 11.872C48.069 11.872 47.486 11.85 47.013 11.795L47.112 13.071C47.585 13.104 48.036 13.115 48.487 13.115C48.674 13.115 48.861 13.115 49.059 13.104C48.575 14.292 47.684 15.909 46.815 16.987L48.146 17.669C49.037 16.426 49.972 14.501 50.5 12.961C51.237 12.851 51.919 12.708 52.425 12.576L52.381 11.3C51.952 11.432 51.435 11.553 50.896 11.652C51.061 11.058 51.204 10.497 51.292 10.145ZM50.72 17.757C50.72 17.372 51.127 17.086 51.765 17.086C52.073 17.086 52.37 17.13 52.656 17.196C52.656 17.284 52.656 17.35 52.656 17.416C52.656 18.021 52.425 18.439 51.666 18.439C51.061 18.439 50.72 18.164 50.72 17.757ZM53.866 13.566H52.491C52.513 14.237 52.568 15.216 52.612 16.03C52.359 16.008 52.117 15.986 51.853 15.986C50.324 15.986 49.422 16.811 49.422 17.889C49.422 19.099 50.5 19.704 51.864 19.704C53.426 19.704 53.987 18.912 53.987 17.889C53.987 17.856 53.987 17.812 53.987 17.779C54.592 18.142 55.087 18.604 55.472 18.956L56.209 17.779C55.648 17.273 54.878 16.723 53.932 16.371C53.91 15.821 53.877 15.293 53.866 14.974C53.855 14.49 53.833 14.028 53.866 13.566ZM55.758 14.149L56.539 12.994C55.978 12.587 54.614 11.839 53.822 11.498L53.118 12.587C53.866 12.928 55.12 13.643 55.758 14.149Z" fill="white"/>
</svg>
